<?xml version="1.0" encoding="utf-8" ?><svg xmlns="http://www.w3.org/2000/svg" xmlns:xlink="http://www.w3.org/1999/xlink" width="1024" height="1024" viewBox="0 0 1024 1024"><defs><linearGradient id="gradient_0" gradientUnits="userSpaceOnUse" x1="739.75897" y1="971.96759" x2="366.09708" y2="218.16396"><stop offset="0" stop-color="#007DB9"/><stop offset="1" stop-color="#4AD2C9"/></linearGradient></defs><path fill="url(#gradient_0)" d="M83.0533 341.169C82.679 334.365 82.9119 325.484 82.8768 318.422L82.734 279.68C82.8226 264.079 82.8356 247.349 85.4158 231.974C91.613 195.044 109.929 160.837 136.452 134.681C159.088 111.92 187.73 96.0642 219.036 88.9653C242.414 83.4785 266.105 84.4931 289.97 84.5075L357.062 84.5226L569.689 84.6425L706.597 84.9463L748.788 84.9902C770.347 84.9483 788.79 84.2577 809.909 89.6936C839.699 97.6172 866.841 113.331 888.545 135.219C916.919 163.54 934.53 198.964 938.281 238.981C939.921 256.484 939.492 275.682 939.486 293.416L939.586 627.311L939.728 719.081C939.786 748.588 941.577 778.874 934.95 808.185C920.662 871.377 866.132 923.535 802.738 936.04C788.543 938.84 772.585 939.117 758.158 939.08L397.754 938.863L300.306 938.894C277.203 938.909 243.513 939.887 221.228 935.231C188.392 928.053 158.312 911.587 134.572 887.793C111.431 864.618 95.2239 835.44 87.7784 803.547C81.9145 777.629 83.2944 749.637 83.289 723.03L83.2053 638.905L82.9504 346.075C82.9578 344.828 82.9431 342.368 83.0533 341.169Z"/><path fill="#4FD9CA" d="M83.0533 341.169C82.679 334.365 82.9119 325.484 82.8768 318.422L82.734 279.68C82.8226 264.079 82.8356 247.349 85.4158 231.974C91.613 195.044 109.929 160.837 136.452 134.681C159.088 111.92 187.73 96.0642 219.036 88.9653C242.414 83.4785 266.105 84.4931 289.97 84.5075L357.062 84.5226L569.689 84.6425C575.746 86.6736 624.112 85.4829 633.943 85.5691L664.007 85.7603C666.395 85.7664 674.899 85.9131 676.674 85.548L676.484 86.0129C670.54 85.9565 663.954 85.5629 658.147 86.985C653.093 88.2224 644.555 86.3267 640.711 89.2075L640.511 90.3075C641.887 92.2719 643.509 93.1866 643.493 94.6288C640.642 96.3096 637.587 96.9623 634.701 98.3286C629.31 100.882 624.446 103.223 618.918 105.664C606.849 110.992 594.547 120.173 582.095 123.903C578.303 124.948 575.586 128.845 572.172 130.52C568.517 132.313 563.384 133.229 559.743 134.933C554.524 137.376 555.041 139.913 548.766 139.31C546.625 141.319 545.485 142.442 543.135 144.155C541.523 142.042 543.467 140.234 542.988 137.892C542.032 139.057 541.384 140.381 540.628 141.707C539.321 139.76 538.993 138.965 537.108 137.691C538.246 140.658 538.152 143.481 536.396 146.264C532.795 151.968 522.845 149.856 520.051 156.066C519.401 157.51 520.117 160.843 519.193 161.201C519.028 159.243 519.034 157.172 518.201 155.43L517.733 156.003C516.881 154.228 518.142 153.208 518.181 151.724C518.212 150.59 515.905 148.675 515.281 147.007C513.785 146.969 514.391 146.708 513.309 147.461L513.614 148.032L514.126 148.056L513.624 148.851C511.921 151.494 511.019 150.937 510.978 153.271C511.521 154.968 511.767 155.309 512.855 156.739C512.364 158.384 511.429 158.302 510.109 159.621C508.512 161.216 505.877 167.722 504.231 168.879L504.126 165.236C503.281 164.747 502.222 164.216 501.202 164.674C488.66 170.305 476.388 176.791 464.33 183.394C461.491 184.949 460.089 183.829 458.456 184.867C458.166 186.42 458.256 187.265 456.998 188.201L456.141 188.066L454.602 185.756L453.706 185.798C452.591 187.133 451.848 187.833 451.223 189.474C451.803 190.106 452.002 190.319 452.651 190.902C450.519 191.897 447.012 192.919 444.641 193.665C429.104 198.557 415.259 207.716 400.489 213.636C401.437 213.256 396.717 213.293 395.865 213.469L395.152 212.654C395.666 212.282 396.18 211.91 396.694 211.538C396.56 209.97 396.121 209.345 395.427 207.951L394.541 207.898L394.401 208.528L392.894 209.791C392.26 210.512 390.747 210.242 389.228 211.196C388.542 214.176 390.528 216.603 389.633 218.622C386.114 220.74 385.046 219.494 382.176 222.608C380.817 222.368 380.384 221.747 379.372 220.793L378.644 220.992L377.785 223.402L377.292 223.211L376.017 223.486L374.539 222.037C373.826 222.247 373.215 222.428 372.49 222.604C372.651 229.56 371.445 231.036 367.693 236.524L366.793 236.975C365.485 235.762 365.065 234.286 364.354 232.615C364.049 234.51 364.074 236.674 363.147 238.126C363.043 241.384 362.926 243.108 362.436 246.334C360.832 234.733 361.659 224.736 359.56 212.492C357.531 214.066 356.552 214.832 354.798 216.685L355.135 217.573C356.761 216.233 357.45 214.784 358.721 214.744C361.115 218.55 360.915 232.885 358.862 237.288C353.418 239.998 346.362 241.049 341.217 243.577C325.957 251.076 310.26 258.457 295.403 266.707C289.756 269.844 282.734 267.544 278.883 272.949L278.909 273.67C280.26 274.477 280.72 274.346 282.304 274.436L283.106 275.473C280.521 276.344 276.707 275.531 275.527 272.501C274.635 270.209 274.874 258.829 274.293 257.914L273.975 262.606L273.346 259.936C272.268 262.664 272.669 272.456 272.376 276.111L268.99 276.011C265.724 273.905 264.657 275.884 261.13 274.217C258.554 272.999 255.221 270.536 253.16 273.223C252.671 277.325 254.36 276.68 253.552 281.109C254.306 282.734 253.726 282.185 255.267 282.898C258.364 282.144 258.269 280.374 259.689 281.173C259.618 282.108 259.566 282.727 259.406 283.649L259.873 284.746L259.149 284.872C257.551 285.161 256.463 285.117 255.406 286.238C256.084 287.17 256.52 287.675 257.292 288.535C255.898 289.523 251.16 288.836 249.728 289.573C247.146 290.925 243.01 292.159 240.58 293.405C207.04 310.61 172.566 325.894 139.411 343.918C128.197 350.014 115.897 354.497 104.641 361.226C94.2639 367.43 97.5497 364.96 91.2769 375.687C90.3154 375.303 89.3481 374.934 88.3752 374.581C87.3569 375.723 87.5164 376.1 87.1497 377.747L86.5986 378.248C82.9202 373.063 85.3263 344.108 83.0533 341.169Z"/><path fill="#FEFEFE" d="M360.747 205.075C360.913 200.925 361.648 179.431 362.44 176.846C363.748 179.437 363.435 200.215 363.45 204.584C369.208 200.081 375.031 194.208 380.835 189.328C376.876 194.786 370.015 202.052 365.361 207.258C375.082 207.984 384.677 207.673 394.401 208.528L392.894 209.791C392.26 210.512 390.747 210.242 389.228 211.196C388.542 214.176 390.528 216.603 389.633 218.622C386.114 220.74 385.046 219.494 382.176 222.608C380.817 222.368 380.384 221.747 379.372 220.793L378.644 220.992L377.785 223.402L377.292 223.211L376.017 223.486L374.539 222.037C373.826 222.247 373.215 222.428 372.49 222.604C372.651 229.56 371.445 231.036 367.693 236.524L366.793 236.975C365.485 235.762 365.065 234.286 364.354 232.615C364.049 234.51 364.074 236.674 363.147 238.126C363.043 241.384 362.926 243.108 362.436 246.334C360.832 234.733 361.659 224.736 359.56 212.492C357.531 214.066 356.552 214.832 354.798 216.685C352.689 218.491 350.563 220.441 348.25 221.951C350.266 218.837 354.483 214.647 357.21 210.945C347.622 208.81 338.846 209.72 329.095 208.743C330.76 207.698 353.557 207.814 357.549 207.484C352.443 201.321 347.301 196.107 341.915 190.223C348.337 194.698 354.199 200.323 360.747 205.075Z"/><path fill="#4FD9CA" d="M365.052 210.095C370.233 210.067 389.323 209.13 392.894 209.791C392.26 210.512 390.747 210.242 389.228 211.196C388.542 214.176 390.528 216.603 389.633 218.622C386.114 220.74 385.046 219.494 382.176 222.608C380.817 222.368 380.384 221.747 379.372 220.793L378.644 220.992L377.785 223.402L377.292 223.211C374.663 219.487 368.493 213.486 365.052 210.095Z"/><path fill="#4FD9CA" d="M363.547 212.43C367.531 215.194 371.139 218.594 374.539 222.037C373.826 222.247 373.215 222.428 372.49 222.604C372.651 229.56 371.445 231.036 367.693 236.524L366.793 236.975C365.485 235.762 365.065 234.286 364.354 232.615C364.049 234.51 364.074 236.674 363.147 238.126C363.035 229.559 363.169 220.99 363.547 212.43Z"/><path fill="#FEFEFE" d="M540.447 132.955C541.269 134.387 542.591 136.385 542.988 137.892C542.032 139.057 541.384 140.381 540.628 141.707C539.321 139.76 538.993 138.965 537.108 137.691C538.196 136.205 539.507 134.512 540.447 132.955Z"/><path fill="#FEFEFE" d="M409.098 166.676C407.496 164.531 405.422 162.519 404.052 160.275C406.377 161.57 408.284 163.309 410.328 163.021C412.434 160.582 412.152 152.33 412.458 148.445C413.052 154.083 413.451 159.74 413.655 165.405C416.492 162.685 419.683 159.451 422.778 157.114C420.837 159.487 416.594 163.614 417.553 166.646L419.082 167.063L419.413 168.243C418.142 168.63 418.527 168.474 417.403 169.183L417.232 170.389C418.201 173.085 420.972 175.828 422.934 178.13C419.986 175.874 417.011 173.311 414.146 170.92C413.787 173.127 412.966 184.318 412.472 184.926C411.437 180.336 411.699 175.599 410.735 170.818C408.316 172.646 405.21 175.473 402.845 177.508C404.761 174.709 406.943 171.808 408.946 169.045C404.308 168.996 400.889 169.024 396.272 168.32C401.066 167.298 404.211 166.993 409.098 166.676Z"/><path fill="#FEFEFE" d="M206.109 123.905L206.496 124.084C208.694 127.234 207.975 126.734 211.686 127.003L211.879 127.588C209.692 129.447 209.334 130.164 209.034 132.975L208.47 133.306L206.681 132.284L206.445 131.836C204.198 130.971 205.709 132.464 202.854 132.741C202.589 130.67 200.854 127.522 200.853 127.332C203.692 126.354 204.362 126.481 206.109 123.905Z"/><path fill="#FEFEFE" d="M378.938 140.8C379.961 141.97 380.868 143.277 381.792 144.536L386.606 146.327C383.943 146.752 383.004 146.751 380.59 148.034C380.122 149.622 380.422 149.15 379.483 150.415C377.589 149.285 376.751 147.75 375.443 145.933L375.718 144.789C377.511 143.357 377.87 142.833 378.938 140.8Z"/><path fill="#FEFEFE" d="M307.585 226.974C308.082 227.305 310.415 230.562 311.543 231.625C309.766 234.129 308.942 235.914 307.598 238.63C306.486 234.859 308.076 235.412 304.315 231.938L303.956 231.611C305.762 229.859 306.418 229.192 307.585 226.974Z"/><path fill="#FEFEFE" d="M411.432 188.948L414.399 192.357L414.326 193.386C412.274 195.783 411.915 195.595 411.248 198.806L411.13 199.403L410.876 198.526C410.026 195.632 410.495 196.271 408.202 193.927L407.692 193.412L407.766 192.664C409.338 191.353 409.878 190.899 411.157 189.298L411.432 188.948Z"/><path fill="#FEFEFE" d="M463.639 162.59C464.925 163.918 466.155 165.578 467.308 167.044C465.125 169.342 464.645 169.639 463.317 172.54L462.888 172.478C462.684 171.524 462.59 170.583 462.523 169.61C461.43 168.703 460.953 168.064 460.061 166.99C462.328 165.296 462.603 165.195 463.639 162.59Z"/><path fill="#FEFEFE" d="M131.744 264.911C132.873 266.454 134.09 267.896 135.303 269.373C133.547 271.48 132.862 272.504 131.425 274.852C130.945 272.203 130.542 271.75 128.731 269.767C128.882 268.183 130.594 266.493 131.744 264.911Z"/><path fill="#FEFEFE" d="M328.311 179.865C329.398 181.441 330.134 181.984 331.533 183.292L331.459 184.278C329.744 185.906 329.259 186.539 327.867 188.465L327.248 188.271C327.014 185.482 325.421 185.993 324.875 183.455C326.111 182.263 327.149 181.131 328.311 179.865Z"/><path fill="#FEFEFE" d="M275.006 196.44L278.365 200.609C276.424 203.321 276.193 203.811 274.988 206.863C274.364 202.781 273.76 203.714 272.099 200.504C272.474 198.677 273.582 197.993 275.006 196.44Z"/><path fill="#FEFEFE" d="M458.449 126.408C459.666 127.479 460.294 127.992 461.34 129.273L461.213 130.378C459.745 132.028 459.549 132.343 458.644 134.376L458.433 134.864C457.268 132.938 456.1 131.626 454.675 129.905C455.985 128.84 457.23 127.584 458.449 126.408Z"/><path fill="#FEFEFE" d="M187.014 276.118L189.962 280.398C188.821 281.743 187.75 283.172 186.668 284.568C186.051 282.929 185.844 282.782 184.73 281.5L184.409 281.135C184.208 279.19 185.612 278.053 187.014 276.118Z"/><path fill="#FEFEFE" d="M238.3 172.298C239.516 173.521 240.502 174.37 241.382 175.863C241.046 177.804 240.45 177.789 238.737 179.533C238.605 179.892 238.727 179.684 238.166 179.981C235.702 175.516 235.527 176.429 238.3 172.298Z"/><path fill="#FEFEFE" d="M236.648 247.94L239.609 251.284C238.278 252.783 237.681 253.793 236.591 255.495L233.491 251.46L236.648 247.94Z"/><path fill="#D5F5F7" d="M419.082 167.063C421.041 166.964 427.196 166.373 428.539 167.583L428.338 167.732L428.027 167.149L427.57 167.034L427.171 168.024C425.119 168.129 421.318 168.434 419.413 168.243L419.082 167.063Z"/><path fill="#D5F5F7" d="M272.376 276.111C272.669 272.456 272.268 262.664 273.346 259.936L273.975 262.606C273.958 269.081 274.45 269.784 276.004 275.926L276.554 277.827L276.427 278.51C277.931 279.845 279.371 280.621 279.742 282.27C277.545 281.008 276.097 279.255 274.58 279.272C273.828 280.626 273.963 280.67 273.944 282.26C273.519 284.912 273.592 291.038 272.898 292.236L272.617 292.272C272.387 288.031 272.49 282.933 272.466 278.627L272.593 278.243L271.771 277.824L271.574 277.047L272.31 276.503L272.376 276.111Z"/><path fill="#FEFEFE" d="M514.126 148.056C515.613 148.793 516.371 150.511 517.411 152.097L514.159 157.226C513.081 155.487 512.626 154.369 510.978 153.271C511.019 150.937 511.921 151.494 513.624 148.851L514.126 148.056Z"/><path fill="#D5F5F7" d="M260.367 275.377C263.893 275.884 265.433 276.011 268.99 276.011L272.376 276.111L272.31 276.503L271.574 277.047L271.771 277.824L272.593 278.243L272.466 278.627C270.488 279.515 265.051 283.329 261.85 284.999C264.623 282.479 268.196 279.852 271.207 277.524C266.766 277.503 263.386 277.103 259.046 276.347L260.367 275.377Z"/><path fill="#FEFEFE" d="M259.046 276.347C256.605 277.516 257.639 278.121 255.595 279.192L254.956 278.861C253.963 277.038 254.059 277.09 254.057 274.959C254.956 273.14 254.283 273.764 256.106 272.982C257.995 273.052 258.86 274.126 260.367 275.377L259.046 276.347Z"/><path fill="#A1EDF2" d="M276.004 275.926C279.536 275.971 290.205 275.931 292.909 276.588C287.251 277.702 281.701 277.146 276.554 277.827L276.004 275.926Z"/><path fill="#A1EDF2" d="M272.617 292.272L272.898 292.236C273.592 291.038 273.519 284.912 273.944 282.26C274.005 287.473 274.357 296.49 273.428 301.326C273.202 299.337 272.485 293.954 272.617 292.272Z"/><path fill="#A1EDF2" d="M377.292 223.211L377.785 223.402C379.759 225.827 380.516 226.936 382.156 229.563L376.017 223.486L377.292 223.211Z"/><path fill="#FEFEFE" d="M554.9 341.583C587.177 341.403 620.309 340.41 652.462 341.435C661.814 349.87 670.571 358.867 679.561 367.685C695.187 382.941 710.69 398.323 726.068 413.829C758.745 446.996 791.6 479.987 824.633 512.8L812.059 524.767C814.751 527.646 817.254 530.329 820.105 533.046L700.982 650.116C692.001 658.988 683.101 667.942 674.283 676.977C669.604 681.82 661.263 691.061 656.273 694.843C643.623 694.793 628.76 694.487 616.204 695.047C612.588 696.207 594.034 696.889 590.93 695.086C588.859 694.853 583.431 695.061 581.099 695.095C578.064 696.514 570.963 696.646 567.956 695.031L562.165 695.659C562.092 691.179 562.173 687.543 561.223 683.119C559.407 682.909 560.069 683.331 558.949 682.244C559.333 678.747 577.49 661.788 581.092 658.249L614.639 625.165L720.841 518.794C718.987 517.483 716.691 515.334 714.969 513.719C666.405 468.172 620.951 419.039 573.811 371.984C567.842 366.026 562.691 359.71 556.544 353.854C559.524 353.314 562.664 352.993 565.681 352.625L554.9 341.583Z"/><path fill="#1090B8" d="M812.059 524.767C814.751 527.646 817.254 530.329 820.105 533.046L700.982 650.116C692.001 658.988 683.101 667.942 674.283 676.977C669.604 681.82 661.263 691.061 656.273 694.843C643.623 694.793 628.76 694.487 616.204 695.047C612.588 696.207 594.034 696.889 590.93 695.086C588.859 694.853 583.431 695.061 581.099 695.095C578.064 696.514 570.963 696.646 567.956 695.031L562.165 695.659C562.092 691.179 562.173 687.543 561.223 683.119C567.683 682.307 584.79 682.95 592.065 682.975L653.364 682.948C672.996 663.911 692.397 644.636 711.56 625.127L812.059 524.767Z"/><path fill="#23A5B9" d="M590.93 695.086C599.353 694.897 607.78 694.883 616.204 695.047C612.588 696.207 594.034 696.889 590.93 695.086Z"/><path fill="#23A5B9" d="M567.956 695.031C572.394 694.968 576.657 694.873 581.099 695.095C578.064 696.514 570.963 696.646 567.956 695.031Z"/><path fill="#1090B8" d="M565.681 352.625C602.082 390.763 639.215 428.196 677.058 464.905C692.846 480.471 710.086 498.754 725.996 513.611L720.841 518.794C718.987 517.483 716.691 515.334 714.969 513.719C666.405 468.172 620.951 419.039 573.811 371.984C567.842 366.026 562.691 359.71 556.544 353.854C559.524 353.314 562.664 352.993 565.681 352.625Z"/><path fill="#A1EDF2" d="M733.309 515.026C761.259 515.132 787.598 515.385 815.73 515.046C804.923 525.851 793.741 535.955 782.836 546.587C759.863 568.958 737.086 591.531 714.509 614.302C699.622 629.334 684.581 644.211 669.385 658.931C664.16 664.042 656.538 672.749 651.187 676.99C641.308 677.699 628.858 677.104 618.666 677.033C602.127 676.914 585.588 677.037 569.053 677.402C576.002 672.158 584.938 662.792 591.275 656.446L622.167 625.526L733.309 515.026Z"/><path fill="#FEFEFE" d="M212.711 342.021L310.199 341.08L421.287 451.625L455.849 486.119C464.563 494.832 475.272 505.268 482.901 514.851C479.19 518.295 473.718 523.155 470.574 526.931C473.1 526.056 474.065 524.429 476.048 523.999L476.808 524.573C476.973 526.615 477.056 528.522 475.253 530.077C451.218 550.812 430.167 575.248 408.159 598.127C402.098 604.428 394.133 609.442 388.325 616.133C376.463 629.26 364.567 642.043 352.189 654.688C349.149 657.794 345.377 660.445 342.296 663.532C336.353 669.485 327.691 680.488 320.545 684.367C317.955 684.445 314.08 684.931 312.062 683.396C309.587 684.029 292.597 683.493 288.646 683.495L244.632 683.517C235.974 683.518 224.426 683.833 216.015 682.879C232.816 664.676 255.626 643.4 273.619 625.655L385.292 515.561C370.2 500.358 354.983 485.28 339.642 470.328L266.595 397.266L235.897 366.753C228.526 359.382 219.193 350.07 212.711 342.021Z"/><path fill="#1090B8" d="M470.574 526.931C473.1 526.056 474.065 524.429 476.048 523.999L476.808 524.573C476.973 526.615 477.056 528.522 475.253 530.077C451.218 550.812 430.167 575.248 408.159 598.127C402.098 604.428 394.133 609.442 388.325 616.133C376.463 629.26 364.567 642.043 352.189 654.688C349.149 657.794 345.377 660.445 342.296 663.532C336.353 669.485 327.691 680.488 320.545 684.367C317.955 684.445 314.08 684.931 312.062 683.396C325.736 671.999 341.848 654.924 354.793 641.985L435.639 562.049C446.603 551.213 459.425 536.809 470.574 526.931Z"/><defs><linearGradient id="gradient_1" gradientUnits="userSpaceOnUse" x1="329.22455" y1="696.55896" x2="369.2951" y2="498.34396"><stop offset="0" stop-color="#92F0F2"/><stop offset="1" stop-color="#C6F0F5"/></linearGradient></defs><path fill="url(#gradient_1)" d="M390.611 517.525C398.971 518.418 411.148 518.066 419.81 518.086C437.013 518.15 454.216 518.122 471.419 518.001C452.73 535.232 436.659 553.245 418.867 571.138C411.384 578.665 394.783 594.227 387.625 601.203C375.918 612.611 318.041 674.032 308.864 677.872C284.411 676.1 252.414 677.26 227.607 677.503C234.126 672.552 244.129 662.212 250.234 656.222C264.223 642.475 278.142 628.657 291.99 614.768C324.588 582.257 358.553 550.199 390.611 517.525Z"/><path fill="#FEFEFE" d="M383.341 341.944C405.655 341.646 427.971 341.466 450.287 341.403C459.353 341.353 473.26 340.596 481.705 341.283C489.772 347.389 498.978 356.755 506.255 363.951L536.689 394.031C561.432 418.389 585.838 442.952 609.746 468.126C624.209 483.356 640.492 498.264 654.639 513.489C643.781 524.871 632.268 535.523 621.063 546.579L555.754 611.246L505.508 661.837C498.722 668.619 490.818 676.941 483.87 683.297C451.73 682.986 419.588 682.861 387.447 682.923C404.221 664.566 421.228 649.353 438.672 632.052L472.073 598.325C499.229 571.442 526.287 545.203 552.924 517.767C550.871 516.883 549.655 515.515 547.558 514.344C544.453 513.427 539.077 508.914 538.703 505.664C537.55 504.055 526.384 492.629 524.144 490.23C506.042 471.049 487.517 452.273 468.582 433.914C441.226 407.176 414.427 379.274 387.272 352.311C387.099 349.868 386.794 348.833 388.119 346.957C386.505 345.305 384.87 343.675 383.341 341.944Z"/><path fill="#23A5B9" d="M387.272 352.311C387.099 349.868 386.794 348.833 388.119 346.957L492.456 449.638C513.516 470.555 536.136 492.291 556.151 514.036L552.924 517.767C550.871 516.883 549.655 515.515 547.558 514.344C544.453 513.427 539.077 508.914 538.703 505.664C537.55 504.055 526.384 492.629 524.144 490.23C506.042 471.049 487.517 452.273 468.582 433.914C441.226 407.176 414.427 379.274 387.272 352.311Z"/><path fill="#59C0D8" d="M538.703 505.664C541.341 508.225 545.163 511.709 547.558 514.344C544.453 513.427 539.077 508.914 538.703 505.664Z"/><defs><linearGradient id="gradient_2" gradientUnits="userSpaceOnUse" x1="515.86176" y1="684.20026" x2="527.6405" y2="509.26624"><stop offset="0" stop-color="#93EEF2"/><stop offset="1" stop-color="#CBF3F5"/></linearGradient></defs><path fill="url(#gradient_2)" d="M570.9 516.743L644.97 516.494C631.535 527.143 616.591 544.345 604.082 556.639L527.264 632.037C512.903 646.271 495.887 664.363 481.019 677.467L475.125 677.538L399.403 677.567C415.246 663.774 432.484 645.76 447.47 630.783L517.971 560.437L543.264 534.956C549.253 528.961 556.02 521.927 562.688 516.848L570.9 516.743Z"/><path fill="#FEFEFE" d="M843.924 376.858L845.026 377.001C845.358 386.688 846.271 397.172 846.071 406.762C852.976 400.117 865.649 387.936 872.95 382.25C866.016 391.567 855.709 398.337 849.156 408.168C856.272 409.091 874.778 408.594 878.012 409.372L878.083 409.686C870.33 410.938 856.56 410.035 848.04 410.82C854.182 418.329 864.667 427.989 869.725 435.056C862.409 428.911 852.957 420.035 846.097 413.24C845.983 423.324 845.841 435.861 844.622 445.789C842.755 435.269 843.989 423.856 842.853 412.979C839.917 415.827 823.633 432.017 821.225 432.447C828.551 424.621 833.871 419.785 840.403 411.005C836.288 410.894 829.567 409.852 826.604 409.967L825.381 408.921C829.072 409.183 836.705 408.809 840.757 408.763C834.317 401.474 827.45 394.403 820.89 387.186L821.567 386.365C827.128 392.442 835.906 400.646 842.346 405.617C843.724 397.254 844.162 385.36 843.924 376.858Z"/><path fill="#FEFEFE" d="M361.491 808.197C361.483 795.252 361.416 783.795 362.372 770.886C364.114 782.636 363.28 795.839 363.969 808.014C371.401 801.992 377.613 796.281 384.643 789.769L385.114 790.64C378.559 797.112 371.968 803.549 365.342 809.949C370.608 809.976 392.046 809.96 396.012 811.172C390.476 812.132 371.701 811.986 365.15 812.048C371.497 818.506 384.344 828.253 388.304 835.351C380.372 827.627 372.123 820.236 363.577 813.197C363.628 817.421 363.736 844.089 362.28 845.68C361.296 835.911 361.544 823.637 361.531 813.647C356.219 818.268 350.629 822.721 345.226 827.25C343.154 828.987 340.893 831.259 338.898 832.789C344.468 826.435 353.344 818.265 359.551 812C349.068 812.092 334.63 812.5 324.544 811.579C335.732 810.093 348.356 810.058 359.674 809.873C352.511 802.815 345.057 795.652 338.227 788.303C342.921 791.183 356.061 803.604 361.491 808.197Z"/><path fill="#FEFEFE" d="M659.548 180.895L660.98 181.426C661.322 190.032 661.515 198.642 661.56 207.255C666.123 202.699 673.365 196.617 678.447 192.683L679.375 192.681L679.235 192.155L679.442 192.028L679.465 192.517L679.73 191.951L678.755 192.431L678.991 193.073C674.563 197.853 668.301 203.676 663.522 208.368C671.664 208.77 685.403 207.763 692.732 209.42C691.77 210.18 666.4 210.356 663.138 210.414C670.092 217.45 675.77 223.462 682.353 230.907C678.181 228.122 666.348 216.508 661.477 212.208C661.579 223.022 661.495 232.911 660.72 243.693L660.354 242.995L660.614 244.228L660.321 243.905L660.527 242.829L660.106 242.698C659.104 234.998 658.923 221.238 658.509 213.032C653.852 216.526 648.197 221.979 643.546 225.934L643.315 225.734C645.535 222.201 653.97 214.035 657.338 210.624C653.552 210.642 629.915 210.508 627.859 209.31C636.989 208.547 646.968 208.436 656.291 207.884C650.636 201.309 644.159 194.91 638.877 188.322C640.575 188.744 656.285 203.6 658.827 205.933C658.947 197.584 659.187 189.237 659.548 180.895Z"/><path fill="#FEFEFE" d="M661.487 805.424C663.149 794.2 661.717 782.322 662.897 771.908C664.296 774.722 664.02 798.495 664.602 804.391C670.64 800.158 676.762 794.423 682.181 789.413C680.114 793.505 669.961 803.204 666.258 806.94C675.317 806.862 684.377 806.896 693.435 807.042L693.058 807.997C684.349 808.201 675.649 808.689 666.971 809.462C671.572 815.4 679.236 822.961 684.609 828.604C677.892 824.507 670.134 815.985 664.035 810.572C663.915 816.742 663.803 845.311 662.425 849.052C661.416 845.631 661.905 815.978 661.944 810.891C656.357 816.105 647.225 825.051 641.397 829.258C646.831 822.784 654.037 816.352 658.71 809.861C650.754 808.977 645.883 809.044 637.782 808.941C637.543 808.586 637.643 808.822 637.693 808.178L640.526 807.483C645.342 807.653 653.717 807.007 658.649 806.692C653.588 799.416 646.64 795.633 641.389 788.421L641.591 788.236C648.292 794.11 654.448 799.933 661.487 805.424Z"/><path fill="#FEFEFE" d="M182.052 581.418L182.979 581.048C183.274 590.955 183.493 600.865 183.634 610.775C191.741 603.759 198.961 596.213 206.814 589.239C200.768 597.946 193.225 603.116 187.52 611.849C192.673 611.866 208.313 611.647 213.017 612.421C208.182 613.47 191.98 613.669 185.256 614.283C194.095 618.689 200.571 625.416 207.377 632.493L207.067 632.588C199.813 627.591 196.876 622.684 189.005 618.517L188.03 618.228C186.47 617.089 187.268 617.238 185.669 617.347C182.215 620.635 183.399 642.468 182.736 649.127L182.498 649.021C180.884 638.685 183.12 627.166 180.451 616.833C174.599 620.77 165.634 630.376 160.209 635.806C164.69 628.153 173.389 621.041 179.569 614.31L168.716 613.947L164.497 613.258L164.215 612.623C167.063 612.466 177.167 612.095 179.349 611.475L180.591 610.177C180.852 609.261 180.454 607.615 180.626 606.55C182.015 597.93 181.996 590.123 182.052 581.418Z"/><path fill="#FEFEFE" d="M181.521 377.574C187.578 371.811 194.352 365.288 201.295 360.654C198.341 363.856 184.845 376.831 184.329 378.95L185.082 379.533C184.432 381.165 184.747 380.617 182.662 381.596C187.48 387.39 196.063 394.608 199.339 400.913C193.283 395.042 187.194 389.203 181.074 383.398C181.283 386.722 181.867 402.686 180.48 404.607L180.61 404.798C179.915 402.441 178.606 387.244 178.104 383.238C172.957 388.784 165.058 396.626 159.411 401.484C164.263 394.421 170.65 388.711 175.833 381.497L162.632 381.52C161.905 381.263 161.125 381.025 160.392 380.788L160.839 380.003C166.459 380.021 170.397 379.826 175.964 379.394C171.767 374.41 165.892 368.901 161.218 363.605L161.381 363.379C166.452 366.796 172.295 372.877 177.612 377.125C179.193 371.44 179.085 368.966 179.077 363.066L180.363 363.415C181.139 368.828 181.574 372.11 181.521 377.574Z"/><path fill="#FEFEFE" d="M846.582 655.418C846.56 652.155 846.339 630.016 847.474 627.885C848.792 634.75 848.572 648.867 848.505 656.299C852.878 652.757 859.304 647.246 863.967 644.483C860.293 648.626 854.637 653.412 850.279 656.916C856.787 656.88 862.871 656.769 869.365 657.279L869.632 657.573L870.623 657.591C868.156 657.228 853.38 658.253 849.838 658.368C856.317 664.884 862.266 668.451 867.612 673.568L866.98 673.682C860.489 668.889 855.055 664.801 848.692 659.717C848.508 664.655 848.731 692.557 847.32 694.677C846.113 685.689 846.511 669.646 846.492 660.107C841.507 663.229 836.607 667.656 831.42 671.104C835.31 666.82 840.367 662.546 844.743 658.666C840.697 658.523 826.798 657.28 823.713 657.626L824.886 657.594L824.803 657.317C831.223 656.557 837.96 656.695 844.432 656.742C840.707 653.301 836.012 649.715 832.009 646.505L832.465 645.794C836.95 649.005 841.842 652.698 846.582 655.418Z"/><path fill="#FEFEFE" d="M804.714 706.393C805.894 708.028 806.483 719.425 806.638 721.84L813.922 715.719C812.142 718.429 810.398 721.163 808.691 723.92C813.003 723.944 817.56 723.817 821.79 724.53C816.374 725.286 813.771 725.423 808.216 725.522C810.071 728.189 812.847 731.528 814.906 734.146C812.029 732.012 808.968 729.28 806.208 726.926C805.889 731.195 805.738 737.631 804.847 741.641C803.708 736.85 803.927 731.379 803.929 726.423C800.554 729.102 797.836 731.211 794.271 733.607C796.922 730.738 798.925 728.647 801.164 725.467C797.01 725.035 792.134 724.914 787.837 724.59C793.534 723.525 796.019 723.512 801.858 723.342C800.03 720.777 797.458 717.802 795.418 715.318L803.432 721.202C803.985 716.562 804.24 711.193 804.714 706.393Z"/><path fill="#FEFEFE" d="M598.289 838.323C599.578 843.497 599.467 846.264 599.441 851.524C601.973 849.924 604.461 848.1 606.913 846.366L600.951 854.054C604.999 854.325 609.037 854.726 613.059 855.258C609.752 856.18 604.729 856.091 601.151 856.179L600.911 857.382L599.625 858.055C599.38 862.89 599.252 866.239 598.172 870.947C597.558 865.927 597.506 863.218 597.51 858.087C594.769 859.702 591.222 862.435 588.562 864.37C590.694 861.638 593.463 858.708 595.818 856.097C591.633 856.021 587.367 855.841 583.175 855.709C587.251 854.529 592.147 854.344 596.475 853.878C593.757 850.966 591.396 848.085 588.858 845.014C591.821 847.212 594.767 849.432 597.696 851.673C597.618 846.887 597.924 843.069 598.289 838.323Z"/><path fill="#FEFEFE" d="M751.216 719.833C753.669 725.053 750.457 740.553 752.785 743.593C753.538 742.999 754.038 742.629 754.84 742.104L754.429 744.068C755.95 745.591 770.194 743.887 773.324 745.519L774.205 745.451L774.263 745.592C768.346 746.217 759.697 746.036 753.511 746.058C754.665 747.89 755.8 749.735 756.917 751.59C755.118 749.862 753.633 748.161 751.976 746.308L752.026 765.125C751.975 769.907 754.014 770.933 753.975 773.788L753.3 774.316C748.815 771.091 751.457 751.197 750.278 747.49L748.247 748.872L749.175 746.962C747.462 745.382 738.383 745.846 735.508 745.837L735.412 745.614C739.513 744.613 746.309 744.734 750.726 744.644C750.577 736.018 750.583 728.412 751.216 719.833Z"/><path fill="#FEFEFE" d="M869.262 497.556C870.119 492.551 869.775 481.142 870.439 478.772C871.843 484.177 871.486 490.977 871.431 496.64L876.87 492.022C875.779 493.781 874.099 495.803 874.259 497.615C875.764 498.395 878.724 498.042 880.569 497.979C881.352 498.799 881.258 498.453 881.511 499.412C878.766 499.591 875.918 499.643 873.274 500.315L872.994 501.175L871.53 501.586C870.59 503.508 871.616 511.859 870.333 513.197C870.14 511.042 869.888 503.348 868.534 502.16L866.977 501.508C865.489 499.454 859.54 499.045 856.587 498.554C860.034 498.143 863.946 498.04 867.449 497.872C865.06 495.27 864.58 494.564 862.783 491.542C865.16 493.286 867.184 495.461 869.262 497.556Z"/><path fill="#D5F5F7" d="M257.369 740.543C260.233 742.113 262.296 743.726 264.91 745.67C264.278 746.864 264.281 747.418 264.05 748.751C265.101 750.307 266.726 750.808 268.397 749.641C270.406 752.374 273.378 754.619 275.718 757.938C272.658 755.717 270.031 753.094 267.293 750.491C267.539 755.709 267.655 769.135 266.485 773.773C265.71 771.558 265.548 753.603 265.513 750.1C262.483 751.996 258.628 756.01 255.457 758.606C255.458 757.964 262.043 750.566 263.045 749.397C258.289 749.536 252.651 749.225 247.855 749.014L247.471 748.46C249.157 747.635 252.124 747.915 254.219 747.903C256.914 748.008 261.357 748.908 261.832 745.669C260.914 743.46 259.17 742.207 257.369 740.543Z"/><path fill="#A1EDF2" d="M162.722 786.181C164.2 788.849 163.031 796.242 165.058 799.001C167.935 800.402 174.623 800.473 177.967 800.661C173.218 801.441 169.829 801.514 165.055 801.67C166.196 803.086 168.234 805.405 168.55 807.017C166.485 805.712 165.029 803.698 163.422 801.804C163.551 805.69 164.02 811.961 162.764 815.552C162.183 812.068 162.496 805.376 161.538 803.166L160.862 802.944C159.956 803.847 159.645 804.268 158.528 804.897C158.466 803.939 159.946 802.25 160.647 801.249C157.52 801.254 153.066 801.149 150.032 800.598C153.323 799.866 157.117 799.933 160.534 799.857C159.374 798.681 157.366 796.929 157.067 795.522C159.077 796.368 160.365 797.963 161.943 799.536C161.997 794.739 162.303 790.934 162.722 786.181Z"/><path fill="#FEFEFE" d="M825.209 330.406C826.097 331.511 826.305 334.137 826.709 335.894C829.467 338.192 826.88 335.121 829.779 336.197C829.492 336.968 829.199 337.737 828.902 338.504C829.791 339.269 832.05 339.013 833.554 339.05L833.834 339.545C831.414 341.008 829.41 340.297 828.328 341.743L829.468 343.748L829.211 344.327C828.283 344.168 827.648 343.876 826.803 343.468C825.727 344.552 825.931 345.2 825.551 347.003L825.776 348.198L825.229 348.382C823.325 339.214 820.127 342.097 818.019 339.303L817.331 339.563C819.116 339.075 820.489 338.918 821.811 337.668C821.432 336.497 821.434 337.034 821.619 336.069L823.982 336.311C824.886 335.103 824.97 332.178 825.209 330.406Z"/><path fill="#FEFEFE" d="M615.173 158.861C615.69 160.736 615.934 163.308 616.203 165.294L616.88 165.65L619.177 164.139L619.695 164.695C619.072 165.674 618.664 166.345 618.128 167.372C619.116 168.202 620.231 168.302 621.518 168.598L621.894 169.312C620.499 169.532 619.604 169.706 618.233 170.035C617.537 171.861 619.553 170.993 619.344 173.362L616.863 172.08C615.614 173.111 615.409 176.101 614.913 178.183C613.881 175.793 614.469 173.638 613.291 171.586C612.122 172.543 612.045 172.678 610.695 173.299C610.672 172.295 610.73 172.101 610.967 171.153L611.195 170.257C610.416 169.334 607.619 169.404 605.963 169.21L606.167 168.885C607.704 168.371 609.161 168.152 610.751 167.854C613.059 165.659 610.186 167.51 610.945 164.765C611.645 165.187 612.297 165.584 612.981 166.034L613.465 166.357C614.036 165.68 614.536 160.866 615.173 158.861Z"/><defs><linearGradient id="gradient_3" gradientUnits="userSpaceOnUse" x1="278.78616" y1="735.92316" x2="262.91364" y2="744.74707"><stop offset="0" stop-color="#DAF4F8"/><stop offset="1" stop-color="white"/></linearGradient></defs><path fill="url(#gradient_3)" d="M264.91 745.67C266.263 739.684 265.558 732.809 266.418 726.778C267.115 729.79 267.178 743.252 268.06 744.446L268.704 745.731C271.979 749.907 280.656 747.331 285.796 748.354C282.533 749.214 272.333 749.474 268.397 749.641C266.726 750.808 265.101 750.307 264.05 748.751C264.281 747.418 264.278 746.864 264.91 745.67Z"/><path fill="#FEFEFE" d="M568.336 195.228C569.065 195.998 570.742 199.857 571.515 201.116C572.462 202.659 573.332 202.506 574.987 203.188L575.036 203.772C570.162 204.178 571.394 206.625 568.603 209.842C567.675 208.6 567.759 207.175 567.607 205.569L565.249 206.72C561.89 202.788 563.5 203.574 557.921 202.536C560.379 202.274 562.936 202.336 564.992 201.222C564.911 200.675 564.83 200.129 564.749 199.582C566.38 198.693 565.535 198.86 567.372 199.051C568.259 197.914 568.099 196.906 568.336 195.228Z"/><path fill="#FEFEFE" d="M876.041 347.257C878.238 349.016 877.912 351.753 878.892 353.571C880.046 353.703 880.727 353.816 881.864 354.057L881.947 354.664C878.245 357.474 881.06 355.956 880.244 358.407C878.651 358.006 878.842 357.813 877.259 358.218L875.897 360.728L875.344 360.673C874.598 357.081 871.207 356.4 871.744 352.665C872.969 351.508 873.584 351.594 875.166 351.394C875.443 350.012 875.735 348.633 876.041 347.257Z"/><path fill="#FEFEFE" d="M750.082 273.139L750.748 272.484C750.652 269.96 745.815 265.541 744.13 262.728C746.61 264.894 750.925 270.057 753.646 270.082L755.53 270.433L756.782 270.042L757.214 271.135C757.404 273.061 757.053 272.218 758.385 273.717L758.084 275.403L758.162 275.966L756.879 276.454L755.612 276.598L753.653 276.364C752.414 276.767 752.117 276.754 751.058 277.419L749.917 277.117L750.429 275.123L750.082 273.139Z"/><path fill="#FEFEFE" d="M718.541 227.712C720.004 228.939 720.487 229.756 721.316 231.424C722.45 231.723 723.375 232.014 724.484 232.372L724.02 232.954C722.301 233.354 722.754 233.017 721.487 233.994C722.29 234.377 722.91 234.624 723.733 234.955C722.097 237.305 722.192 234.326 719.493 238.597L718.793 238.721C718.149 237.075 718.528 237.468 717.401 236.302L715.523 236.706C715.858 237.411 713.882 231.717 713.991 232.802C716.38 231.422 716.746 230.688 718.128 228.403L718.541 227.712Z"/><path fill="#FEFEFE" d="M409.155 840.78C410.852 842.188 411.161 844.243 411.77 846.377L418.446 847.311L411.404 849.72C410.928 851.339 410.526 853.317 410.139 854.988L409.344 855.226C408.602 853.648 408.712 852.065 408.603 850.25C407.304 849.185 403.147 847.91 401.353 847.273L408.416 846.556L409.155 840.78Z"/><path fill="#FEFEFE" d="M234.148 712.339C235.029 713.456 235.087 715.247 236.694 716.243C236.751 716.38 238.829 717.99 238.234 718.333C235.602 719.851 234.943 721.669 234.366 724.047L234.198 724.768C232.297 719.584 233.391 720.205 227.767 718.174C231.859 716.458 232.566 716.893 234.148 712.339Z"/><path fill="#FEFEFE" d="M434.155 222.889C435.55 225.703 435.608 225.927 437.891 228.165C435.936 230.655 435.386 231.611 433.896 234.318C432.629 231.458 432.036 230.418 429.779 228.308C431.798 226.173 432.507 225.316 434.155 222.889Z"/><path fill="#FEFEFE" d="M200.517 679.537C201.473 680.9 202.54 682.268 203.544 683.607C203.609 684.9 201.697 687.729 201.095 689.608L200.424 689.594C199.406 686.763 198.964 685.821 196.157 684.574L195.418 684.637C197.409 682.657 198.102 682.452 200.153 679.981L200.517 679.537Z"/><path fill="#FEFEFE" d="M368.891 266.915C369.685 267.735 369.724 269.291 369.931 269.476C370.868 270.312 372.447 271.728 373.4 272.582C370.342 274.132 370.036 275.101 369.167 278.376C368.408 277.249 368.369 275.618 367.041 274.62C366.316 274.075 365.564 273.005 365.026 272.27C367.479 270.102 367.854 270.138 368.891 266.915Z"/><path fill="#FEFEFE" d="M784.84 174.062C785.684 175.191 785.417 176.74 787.158 177.938C787.968 178.496 788.392 179.01 788.81 179.905C786.154 182.297 786.072 182.114 785.099 185.643C784.611 185.16 781.277 180.669 781.208 179.809C783.638 177.157 783.916 177.684 784.84 174.062Z"/><path fill="#FEFEFE" d="M448.29 804.862C450.587 808.064 451.158 808.085 454.968 809.31C451.04 810.129 449.976 809.774 448.645 813.815C448.791 814.769 448.82 814.265 448.448 815.317L447.789 815.023C447.121 811.159 447.379 811.605 444.206 809.659L444.312 808.881C446.347 807.454 447.047 807.012 448.29 804.862Z"/><path fill="#D5F5F7" d="M179.349 611.475C173.318 604.549 162.029 596.534 157.148 589.402C159.028 590.78 160.747 592.34 162.447 593.93C168.376 599.476 174.684 604.608 180.591 610.177L179.349 611.475Z"/><path fill="#A1EDF2" d="M842.63 226.897C843.595 228.049 843.793 229.651 844.279 231.255L847.362 229.956L847.54 230.315C846.459 231.531 845.115 232.428 843.806 233.41C846.268 234.386 848.33 235.54 850.654 236.781C848.543 236.188 847.18 235.337 844.995 235.424C843.606 236.571 844.025 236.499 843.552 238.774L843.523 239.224C842.429 238.671 843.584 236.744 842.45 235.165C840.427 235.644 837.505 237.916 835.661 239.176C837.35 237.539 838.611 236.496 840.311 235.061C842.067 233.577 839.03 232.347 838.681 231.091C840.043 231.317 840.673 231.511 841.979 231.893C842.739 230.949 842.564 228.404 842.63 226.897Z"/><path fill="#FEFEFE" d="M167.918 425.365C169.275 427.066 170.167 427.953 171.736 429.473C170.056 431.555 169.468 432.575 168.138 434.918C166.694 432.293 166.083 431.725 164.068 429.586L167.918 425.365Z"/><path fill="#FEFEFE" d="M698.026 738.787C698.702 739.613 701.287 743.862 701.217 744.915C699.136 746.897 698.836 747.285 698.341 750.121C697.665 748.201 696.154 745.46 694.321 744.536L694.59 744.399L694.189 744.283L694.84 744.336C696.394 743.196 697.539 740.623 698.026 738.787Z"/><path fill="#FEFEFE" d="M566.302 158.88C567.278 159.79 568.735 161.601 569.989 162.788C568.758 165.366 567.827 164.075 566.537 168.324C565.811 167.37 565.743 166.699 564.815 165.68C563.555 164.295 562.753 164.395 562.707 162.554C563.889 161.314 565.087 160.089 566.302 158.88Z"/><path fill="#FEFEFE" d="M204.346 439.888C204.839 440.401 207.016 443.472 207.598 444.233L207.365 445.565C205.724 447.181 205.335 447.694 204.466 449.825C202.942 449.018 203.3 447.262 202.791 446.818C201.705 445.868 201.753 446.464 200.58 444.825C202.688 443.001 203.4 442.517 204.346 439.888Z"/><path fill="#FEFEFE" d="M717.4 866.271C719.126 865.766 720.935 866.754 721.443 868.479C721.952 870.204 720.969 872.015 719.245 872.527C717.516 873.042 715.698 872.054 715.187 870.324C714.677 868.594 715.668 866.778 717.4 866.271Z"/><path fill="#FEFEFE" d="M876.503 305.396C878.53 308.178 880.621 308.024 879.996 311.65C879.04 312.794 878.568 312.805 877.159 313.341L876.919 314.173L876.355 314.208L874.946 312.567C874.048 308.996 874.682 308.689 876.503 305.396Z"/><path fill="#FEFEFE" d="M858.856 594.919C859.493 595.787 859.99 597.923 860.268 599.025C861.766 600.46 861.463 600.037 863.735 600.656L863.922 601.144C860.323 602.553 860.112 602.411 859.061 606.155L858.313 605.8C857.511 600.621 856.744 603.473 854.167 600.757C855.716 600.458 855.691 600.496 857.077 599.769C858.295 598.234 858.268 597.611 858.711 595.598L858.856 594.919Z"/><path fill="#FEFEFE" d="M554.261 840.837C555.045 841.594 555.796 843.226 557.163 844.538L557.826 845.17L557.819 846.111C555.819 848.011 555.492 848.454 554.561 851.049C553.612 849.009 552.215 847.058 550.409 845.69L551.409 845.564C553.27 843.775 553.568 843.324 554.261 840.837Z"/><path fill="#D5F5F7" d="M877.658 173.829C877.89 174.558 878.117 177.32 878.235 178.287L881.87 178.362L881.645 178.845L881.93 178.392C880.954 179.307 879.476 179.862 878.021 180.805C878.54 182.204 879.776 182.593 881.119 183.358L880.572 183.658C879.199 183.543 877.312 182.506 875.98 181.88L871.392 183.781L871.128 183.379L869.116 184.508L868.924 184.438C871.948 182.441 875.601 180.656 876.584 177.345L877.658 173.829Z"/><path fill="#FEFEFE" d="M162.594 463.562C163.854 464.627 164.861 465.959 165.543 467.462C165.317 469.298 163.832 470.577 162.856 472.429L162.607 472.909C161.715 471.628 160.376 470.118 159.353 468.858L159.501 467.652C161.237 466.119 161.673 465.684 162.594 463.562Z"/><path fill="#FEFEFE" d="M795.002 295.434C796.235 296.486 797.178 297.761 798.13 299.064C798.029 301.319 796.982 301.909 795.34 303.949C794.572 303.711 792.094 300.35 791.357 299.443C793.406 297.871 793.704 297.649 795.002 295.434Z"/><path fill="#FEFEFE" d="M507.319 855.921C507.791 856.429 508.284 858.364 508.768 859.458C509.866 860.08 510.571 860.311 511.785 860.666L511.867 861.343C511.46 861.566 511.056 861.792 510.652 862.02C507.818 863.629 508.349 863.384 507.518 866.392C505.657 863.289 507.261 864.201 503.575 861.127C505.948 859.944 506.603 858.319 507.319 855.921Z"/><path fill="#FEFEFE" d="M883.158 421.365C883.635 421.797 885.307 424.916 885.709 425.608C886.892 427.649 884.511 432.057 883.789 434.195C883.472 432.62 883.166 431.043 882.868 429.464C881.557 428.016 881.802 428.444 879.589 427.814L879.448 427.324C883.511 425.327 882.824 425.762 883.158 421.365Z"/><path fill="#D5F5F7" d="M185.082 379.533C189.239 379.857 208.434 379.995 210.106 380.547C202.442 381.551 190.987 380.99 182.662 381.596C184.747 380.617 184.432 381.165 185.082 379.533Z"/><path fill="#FEFEFE" d="M825.365 587.402C825.632 587.684 828.476 592.122 828.903 592.776C826.918 594.748 826.569 595.043 825.517 597.609C824.467 594.385 824.567 594.676 822.157 593.266L822.161 592.489C824.336 590.597 824.674 590.206 825.365 587.402Z"/><path fill="#FEFEFE" d="M690.265 181.411C691.713 182.422 692.835 184.594 693.814 186.157C692.455 187.136 690.704 188.112 689.246 188.986C688.57 188.492 687.4 186.265 687.049 185.471C687.786 183.208 688.395 183.172 690.265 181.411Z"/><path fill="#FEFEFE" d="M704.368 144.314C705.722 145.595 706.396 146.129 707.439 147.713C707.425 149.358 705.613 151.071 704.902 153.341L704.333 153.432C700.866 150.707 702.615 147.215 704.368 144.314Z"/><path fill="#FEFEFE" d="M151.404 667.838C152.527 668.792 154.049 670.934 155.02 672.181L151.765 676.182L151.339 676.296C150.156 674.18 149.01 673.994 148.936 671.811C149.898 670.425 150.557 669.301 151.404 667.838Z"/><path fill="#D5F5F7" d="M758.385 273.717C761.078 273.464 776.034 273.203 777.722 274.091C770.596 275.37 763.461 274.587 758.084 275.403L758.385 273.717Z"/><path fill="#FEFEFE" d="M787.137 620.306C788.631 621.95 789.893 623.983 789.911 626.182C788.929 627.579 788.382 628.55 787.548 630.048C786.484 628.966 784.884 626.006 784.98 624.442C786.226 622.812 786.297 622.722 786.985 620.756L787.137 620.306Z"/><path fill="#FEFEFE" d="M744.321 195.822C745.63 197.225 745.701 197.383 746.698 199.055C746.813 200.529 746.82 200.583 746.081 201.896L744.542 204.649C743.475 203.162 742.094 201.734 740.848 200.369C742.105 198.971 743.213 197.35 744.321 195.822Z"/><path fill="#FEFEFE" d="M645.29 145.354C646.351 146.447 647.879 148.933 648.791 150.3C647.549 151.508 646.593 152.746 645.5 154.084C644.809 153.55 642.988 151.095 642.357 150.293C643.596 148.614 644.306 147.184 645.29 145.354Z"/><path fill="#FEFEFE" d="M883.293 527.959C885.081 530.102 886.161 530.717 886.039 533.135C884.791 534.929 884.705 535.036 884.05 537.15L883.908 537.626L883.447 537.642C880.322 534.061 881.332 531.509 883.293 527.959Z"/><path fill="#FEFEFE" d="M149.973 512.875C151.255 514.376 151.919 515 152.875 516.748C152.567 518.904 152.194 518.607 150.275 520.567L149.743 520.811C148.493 519.255 148.325 519.065 147.412 517.321C147.558 515.471 148.692 514.579 149.973 512.875Z"/><path fill="#FEFEFE" d="M126.398 426.915L130.138 431.423C128.569 432.834 128.125 433.539 126.853 435.265L126.688 435.253C125.227 434.216 125.094 433.529 124.324 431.881C124.284 429.436 124.874 429.036 126.398 426.915Z"/><path fill="#FEFEFE" d="M238.574 402.774C239.574 403.972 241.105 406.508 242.014 407.911C240.981 409.111 239.92 410.476 238.917 411.718C237.387 409.976 236.227 409.285 236.22 407.369C237.715 405.465 238.034 405.113 238.574 402.774Z"/><path fill="#FEFEFE" d="M864.613 561.701C865.574 562.79 866.058 563.681 866.835 564.902C866.875 566.939 865.532 569.334 864.852 571.456C864.038 568.884 863.536 568.548 861.896 566.439C861.992 564.503 863.251 563.51 864.613 561.701Z"/><path fill="#FEFEFE" d="M716.218 783.74C717.581 783.032 719.26 783.504 720.055 784.819C720.849 786.134 720.485 787.84 719.224 788.717C718.332 789.336 717.171 789.409 716.209 788.906C715.248 788.402 714.646 787.406 714.648 786.32C714.65 785.235 715.255 784.241 716.218 783.74Z"/><path fill="#FEFEFE" d="M304.598 781.892C305.548 783.464 306.644 784.878 307.737 786.35C306.709 787.656 305.666 789.353 304.739 790.773C303.755 789.268 302.504 787.705 301.409 786.258L304.598 781.892Z"/><path fill="#FEFEFE" d="M598.496 221.876C599.683 222.636 600.719 224.781 601.495 226.11C600.473 227.663 599.381 229.841 598.478 231.517C597.773 228.981 596.389 227.867 595.971 226.102C597.294 224.364 597.522 223.867 598.496 221.876Z"/><path fill="#FEFEFE" d="M528.686 220.327C529.482 222.638 529.776 222.86 531.581 224.538C531.534 226.172 530.243 227.054 528.932 228.555L528.444 228.549C525.368 223.435 524.882 226.111 528.686 220.327Z"/><path fill="#FEFEFE" d="M151.459 711.566L153.446 714.592C153.492 717.011 152.813 717.449 151.303 719.609L147.4 715.268C149.629 713.877 149.912 713.676 151.459 711.566Z"/><path fill="#D5F5F7" d="M753.653 276.364L755.612 276.598C754.847 281.325 755.67 288.422 754.648 294.913C753.63 293.972 754.132 279.969 753.79 277.343L753.653 276.364Z"/><path fill="#FEFEFE" d="M456.538 190.986C457.998 192.481 459.311 193.199 459.213 195.262C458.339 196.384 457.591 197.423 456.775 198.578L456.27 198.615L453.376 194.631C454.48 193.564 455.549 192.181 456.538 190.986Z"/><path fill="#FEFEFE" d="M186.491 490.903L189.741 494.566C188.621 495.923 187.509 497.456 186.442 498.872C186.056 498.554 183.923 495.498 183.479 494.882L186.491 490.903Z"/><path fill="#FEFEFE" d="M144.67 598.437C145.762 600.353 147.321 601.442 147.487 603.26C146.671 604.765 146.047 605.391 144.949 606.666C143.466 604.753 142.599 604.831 142.348 602.861C143.588 601.184 143.794 600.857 144.511 598.887L144.67 598.437Z"/><path fill="#FEFEFE" d="M146.528 359.536C147.551 360.786 148.064 361.239 149.446 362.08L150.173 362.516L150.104 363.237L147.205 365.306L146.733 365.87C145.283 365.071 145.084 365.11 144.185 363.689C144.315 361.294 144.518 361.84 146.528 359.536Z"/><path fill="#D5F5F7" d="M750.429 275.123C746.331 274.792 737.436 275.329 733.977 274.438C737.766 273.699 746.032 273.357 750.082 273.139L750.429 275.123Z"/><path fill="#FEFEFE" d="M584.199 132.812C585.536 133.971 585.643 133.959 586.573 135.54C586.679 137.49 585.502 138.75 584.383 140.407C583.306 139.007 582.626 138.213 581.806 136.618C582.106 134.595 582.585 134.681 584.199 132.812Z"/><path fill="#FEFEFE" d="M456.391 842.669C457.031 843.846 457.731 844.91 458.45 846.036C458.215 848.348 457.526 848.603 456.022 850.668C455.393 849.492 454.788 848.33 454.068 847.205L453.64 846.545C453.911 844.669 454.852 844.269 456.391 842.669Z"/><path fill="#FEFEFE" d="M381.27 865.248L382.015 865.83C383.115 868.447 382.804 868.246 385.052 870.105L385.518 870.484C384.241 870.979 383.83 871.115 382.67 871.867L381.865 872.396C381.837 872.656 381.886 872.456 381.519 873.16C379.987 871.085 378.952 871.315 378.717 869.683C381.503 868.498 380.815 868.331 381.27 865.248Z"/><path fill="#D5F5F7" d="M753.646 270.082C753.873 266.064 753.871 255.945 754.429 252.689C755.375 256.858 755.218 265.706 755.53 270.433L753.646 270.082Z"/><path fill="#FEFEFE" d="M897.273 603.88C898.358 605.264 899.244 606.198 899.885 607.844C899.68 609.86 899.551 609.388 897.859 611.263L897.427 611.339C895.579 610.395 896.234 611.086 895.389 609.194C895.408 606.972 896.22 605.89 897.273 603.88Z"/><path fill="#FEFEFE" d="M323.24 274.896C323.806 275.464 325.426 277.806 325.987 278.584L323.427 282.275C322.368 281.141 321.508 280.194 320.525 278.994C320.699 277.137 321.772 276.545 323.24 274.896Z"/><path fill="#FEFEFE" d="M204.159 528.347C205.292 529.052 206.237 529.921 206.715 531.166C206.575 532.982 205.575 533.715 204.322 535.108C203.067 533.934 202.417 533.496 201.68 531.923C202.173 529.859 202.437 530.148 204.159 528.347Z"/><path fill="#FEFEFE" d="M264.136 856.927L266.335 859.803C266.478 861.843 265.717 862.169 264.347 864.188C263.085 862.831 262.748 862.567 261.888 860.863C262.22 858.577 262.394 859.028 264.136 856.927Z"/><path fill="#FEFEFE" d="M145.412 496.113C147.109 496.602 147.518 497.144 148.243 498.362C148.1 500.27 147.401 500.771 146.156 502.246L145.685 502.354C143.909 501.775 144.512 502.323 143.714 500.773C143.864 498.323 144.009 498.231 145.412 496.113Z"/><path fill="#FEFEFE" d="M826.739 280.851C827.94 282.022 827.954 282.158 828.783 283.55C828.546 285.773 828.122 285.635 826.56 287.754C825.044 286.174 824.484 286.146 824.155 284.385C825.193 283.114 825.822 282.216 826.739 280.851Z"/><path fill="#FEFEFE" d="M754.687 372.874C755.845 373.361 755.752 373.434 756.449 374.518C756.543 376.287 755.429 378.091 754.627 379.762C753.583 378.3 753.048 377.676 752.353 375.983C752.773 374.057 752.868 374.508 754.687 372.874Z"/><path fill="#FEFEFE" d="M795.084 424.307C796.39 425.271 796.425 425.373 797.476 426.641C797.308 428.538 796.758 428.561 795.283 430.384C794.238 430.156 793.575 429.15 793.17 428.248C793.532 425.711 793.352 426.557 795.084 424.307Z"/><path fill="#4FD9CA" d="M162.632 381.52C158.643 381.727 152.452 381.336 148.525 380.605C149.827 379.769 158.863 379.964 160.839 380.003L160.392 380.788C161.125 381.025 161.905 381.263 162.632 381.52Z"/><path fill="#FEFEFE" d="M867.612 673.568C870.891 674.991 871.062 673.515 873.379 674.498C873.408 676.057 873.455 675.955 872.6 677.252L871.286 677.474C868.615 676.511 868.819 676.14 866.98 673.682L867.612 673.568Z"/><path fill="#59C0D8" d="M247.855 749.014C244.12 748.827 240.581 748.879 236.682 748.637L236.976 748.386C241.531 747.438 249.56 747.522 254.219 747.903C252.124 747.915 249.157 747.635 247.471 748.46L247.855 749.014Z"/><path fill="#59C0D8" d="M637.782 808.941C635.048 808.904 627.629 808.471 624.888 808.045L625.641 808.084L625.6 807.829C629.735 807.38 636.318 807.462 640.526 807.483L637.693 808.178C637.643 808.822 637.543 808.586 637.782 808.941Z"/><path fill="#FEFEFE" d="M199.012 737.216C200.441 737.905 200.334 737.871 201.3 739.149C201.499 740.841 200.67 741.699 199.734 743.194C198.365 741.985 198.43 742.045 197.51 740.46C197.641 738.448 197.577 739.097 199.012 737.216Z"/><path fill="#59C0D8" d="M832.009 646.505C830.1 645.058 827.37 642.733 825.225 642.012C824.764 642.464 824.303 642.916 823.843 643.369L822.981 642.691L822.904 641.42C825.978 639.465 830.362 643.953 832.465 645.794L832.009 646.505Z"/><path fill="#FEFEFE" d="M330.498 836.245C331.464 835.66 332.721 835.956 333.325 836.911C333.929 837.866 333.657 839.128 332.714 839.75C332.087 840.163 331.287 840.205 330.62 839.861C329.954 839.516 329.525 838.839 329.5 838.089C329.475 837.339 329.856 836.634 330.498 836.245Z"/><path fill="#D5F5F7" d="M660.022 168.238C660.85 172.97 660.855 176.656 660.98 181.426L659.548 180.895C659.462 175.989 659.545 173.099 660.022 168.238Z"/><path fill="#FEFEFE" d="M134.099 466.259C134.943 465.601 136.154 465.718 136.855 466.526C137.556 467.334 137.501 468.55 136.731 469.292C136.195 469.807 135.419 469.985 134.713 469.755C134.006 469.524 133.485 468.923 133.356 468.191C133.228 467.459 133.514 466.716 134.099 466.259Z"/><path fill="#FEFEFE" d="M500.545 824.245C501.594 823.939 502.695 824.529 503.021 825.572C503.347 826.616 502.778 827.728 501.742 828.074C501.053 828.303 500.294 828.143 499.757 827.655C499.22 827.167 498.989 826.427 499.152 825.72C499.316 825.013 499.848 824.449 500.545 824.245Z"/><path fill="#A1EDF2" d="M826.604 409.967C822.053 410.037 818.699 410.077 814.192 409.694L814.241 409.418C818.493 408.843 821.043 408.883 825.381 408.921L826.604 409.967Z"/><path fill="#D5F5F7" d="M756.782 270.042C758.875 268.056 761.7 265.133 764.069 263.75L764.261 264.071C762.739 266.267 759.347 269.469 757.214 271.135L756.782 270.042Z"/><path fill="#A1EDF2" d="M180.162 352.544C180.457 355.74 180.758 360.216 180.363 363.415L179.077 363.066C179.253 359.34 179.67 356.249 180.162 352.544Z"/><path fill="#A1EDF2" d="M168.716 613.947C165.981 614.022 159.636 614.38 157.282 613.364C159.222 612.851 162.136 612.765 164.215 612.623L164.497 613.258L168.716 613.947Z"/><path fill="#D5F5F7" d="M880.569 497.979C883.939 498.034 887.529 498.031 890.874 498.233C887.785 498.832 884.661 499.561 881.511 499.412C881.258 498.453 881.352 498.799 880.569 497.979Z"/><path fill="#A1EDF2" d="M749.917 277.117L751.058 277.419C748.877 280.179 746.045 282.537 743.344 284.754C745.827 281.449 746.986 279.979 749.917 277.117Z"/><path fill="#FEFEFE" d="M758.162 275.966C760.39 278.452 761.984 280.186 763.887 282.935C760.851 280.537 759.439 279.377 756.879 276.454L758.162 275.966Z"/><path fill="#59C0D8" d="M188.03 618.228L189.005 618.517C189.086 619.969 189.552 624.058 188.475 624.93C187.742 622.606 187.978 620.68 188.03 618.228Z"/><path fill="#D5F5F7" d="M866.977 501.508L868.534 502.16C866.856 503.207 863.504 506.47 861.265 508.112C863.495 505.07 864.224 504.053 866.977 501.508Z"/><path fill="#FEFEFE" d="M599.625 858.055L600.911 857.382L601.151 856.179L606.422 863.526C605.037 862.366 600.994 858.856 599.625 858.055Z"/><path fill="#A1EDF2" d="M268.06 744.446C269.31 743.416 271.213 741.605 272.67 741.19C271.454 743.393 270.173 744.002 268.704 745.731L268.06 744.446Z"/><path fill="#D5F5F7" d="M872.994 501.175C875.555 503.514 876.59 505.037 878.651 507.821C876.359 505.973 873.881 503.57 871.53 501.586L872.994 501.175Z"/><path fill="#A1EDF2" d="M815.472 380.658C818.118 382.778 819.234 383.9 821.567 386.365L820.89 387.186C819.244 385.551 816.987 382.551 815.472 380.658Z"/><path fill="#4FD9CA" d="M540.507 142.605L540.726 142.941C540.697 144.595 540.25 144.465 538.743 146.11C538.023 144.347 537.988 145.157 538.503 143.604L540.507 142.605Z"/><path fill="#59C0D8" d="M693.435 807.042C694.886 807.063 697.045 806.916 698.222 807.549C696.092 808.156 695.324 808.027 693.058 807.997L693.435 807.042Z"/><path fill="#A1EDF2" d="M182.052 581.418C181.977 579.628 181.69 578.085 182.458 576.527C183.251 577.773 182.994 579.47 182.979 581.048L182.052 581.418Z"/><path fill="#59C0D8" d="M843.924 376.858C843.944 375.335 843.737 373.764 844.528 372.568C845.198 374.065 845.029 375.342 845.026 377.001L843.924 376.858Z"/><path fill="#59C0D8" d="M384.643 789.769C386.792 787.727 387.758 786.848 390.219 785.088C388.872 786.599 386.539 789.38 385.114 790.64L384.643 789.769Z"/></svg>