<?xml version="1.0" encoding="utf-8" ?><svg xmlns="http://www.w3.org/2000/svg" xmlns:xlink="http://www.w3.org/1999/xlink" width="1024" height="1024" viewBox="0 0 1024 1024"><path fill="#FCFDFD" d="M0 0L1024 0L1024 1024L0 1024L0 0Z"/><defs><linearGradient id="gradient_0" gradientUnits="userSpaceOnUse" x1="724.59955" y1="941.08844" x2="284.0166" y2="52.398182"><stop offset="0" stop-color="#0080BA"/><stop offset="1" stop-color="#5BE5CF"/></linearGradient></defs><path fill="url(#gradient_0)" d="M663.582 938.818C633.683 939.534 600.771 938.867 570.632 938.895L381.333 938.897L293.998 938.83C271.721 938.818 245.485 939.903 223.951 935.704C178.9 926.728 139.217 900.324 113.537 862.236C96.9497 837.559 88.2973 813.907 84.5838 784.358C82.7859 770.052 83.3625 752.828 83.3289 738.214L83.3075 665.55L83.2188 439.145L82.9482 315.74C82.8463 290.193 81.363 252.394 86.1043 228.496C95.5743 180.654 123.865 138.622 164.622 111.839C183.134 99.6003 206.961 90.4888 228.735 86.8341C244.221 84.2348 260.552 84.4989 276.214 84.514L323.078 84.5899L477.079 84.7019L694.122 84.8613L745.764 84.964C765.613 84.9473 786.82 84.0003 806.219 88.6543C873.948 104.903 929.209 163.359 937.928 233.012C939.689 247.077 939.652 260.762 939.713 274.89C939.8 290.599 939.786 306.309 939.673 322.018L939.558 453.746L939.98 666.798L940.01 737.905C940.037 753.66 940.746 769.826 938.893 785.473C937.778 794.889 935.775 804.086 933.838 813.366C919.555 861.307 892.45 894.602 848.618 919.198C807.849 942.076 773.162 939.206 728.535 938.866C707.301 938.705 684.878 939.274 663.582 938.818Z"/><path fill="#0381B8" d="M811.106 859.958C809.993 861.803 809.239 863.107 808.314 865.048L808.719 865.507C811.014 864.815 813.044 864.05 815.288 863.215L816.336 863.726C816.612 864.956 816.613 865.16 817.158 866.277C820.932 867.434 826.902 870.48 827.866 874.734C828.107 875.8 828.135 876.039 828.937 876.833C832.396 876.939 834.195 872.636 837.213 871.388C838.386 870.903 838.094 871.108 838.983 870.144C837.46 862.647 846.024 868.3 845.025 860.315C846.912 856.594 851.374 854.369 855.009 852.487L855.545 852.674L854.425 853.356C854.52 855.468 854.4 855.87 855.407 857.633C856.993 858.637 856.205 858.541 857.795 858.253C859.681 856.412 858.602 856.433 859.539 854.703C860.721 856.143 865.101 861.319 867.389 860.376C875.659 857.382 882.027 850.016 889.888 846.964C892.545 845.933 892.495 846.089 894.866 842.83C895.754 841.611 903.457 841.046 903.607 840.875C910.196 833.358 917.355 829.349 925.448 823.699C925.083 823.954 927.769 813.014 929.883 812.55C930.356 812.415 930.399 811.085 930.47 810.658C931.218 809.856 931.454 809.467 931.911 808.469C932.334 809.634 932.34 809.747 932.244 810.948L932.158 811.923L933.838 813.366C919.555 861.307 892.45 894.602 848.618 919.198C807.849 942.076 773.162 939.206 728.535 938.866C707.301 938.705 684.878 939.274 663.582 938.818C661.817 937.876 651.905 938.338 648.766 938.103C652.101 937.128 678.587 938.335 681.106 936.821C678.813 935.63 678.993 936.88 677.727 935.266C677.813 934.936 677.899 934.606 677.984 934.276C682.498 934.564 700.628 935.83 703.725 933.882C701.066 932.151 697.545 933.518 695.991 931.74C700.691 928.781 701.112 932.223 705.52 931.443L705.633 930.636C711.748 930.825 717.628 930.008 723.708 929.782C726.308 930.232 731.008 933.722 733.659 931.484C738.023 927.801 744.876 928.408 750.438 928.603L751.06 928.63C752.425 927.484 752.338 927.562 753.17 925.975L752.792 925.315L753.112 926.228L752.237 925.247C742.724 927.556 747.53 921.359 743.847 917.166C742.222 917.976 743.159 916.895 741.09 918.314C740.247 917.862 739.552 917.632 738.628 917.39L738.711 916.612C740.001 914.813 741.338 915.664 743.081 914.042C737.445 903.903 731.882 920.706 727.867 924.831C721.27 926.658 712.592 927.223 705.771 929.244C704.779 929.538 697.183 928.745 695.74 928.545L695.287 927.66C696.143 926.326 706.17 919.832 707.742 919.577C711.574 918.955 716.273 913.004 718.794 912.797C727.819 912.054 737.758 908.007 745.33 903.336C746.542 902.587 748.354 896.027 753.219 894.627C757.045 893.527 760.077 888.848 763.723 885.873C763.015 888.344 763.125 889.052 764.217 891.201C765.598 892.2 764.874 892.064 766.335 892.074L768.73 889.332C773.577 883.734 773.85 887.354 779.468 884.931L779.741 883.934C777.185 877.878 772.629 883.078 770.688 881.319C771.87 880.015 775.578 878.793 777.395 878.951C780.35 879.207 784.549 877.2 787.789 876.45L788.229 876.352C794.854 868.698 802.912 866.792 811.106 859.958Z"/><path fill="#FCFDFD" d="M554.894 341.644C587.294 341.477 620.058 340.573 652.384 341.317C659.719 347.671 667.684 355.968 674.68 362.841C687.956 375.77 701.135 388.799 714.217 401.925L791.996 480.419C802.778 491.308 813.981 501.821 824.636 512.826C820.527 516.603 816.474 520.441 812.481 524.341C814.92 527.492 818.043 530.368 820.914 533.164C809.1 543.959 798.452 556.023 786.86 567.353L695.334 656.617C687.085 664.802 678.935 673.086 670.887 681.468C667.075 685.391 661.205 691.795 657.261 695.022C646.71 695.554 633.214 694.983 622.345 695C602.218 695.128 582.093 695.453 561.972 695.974C561.426 691.47 561.061 687.526 560.969 682.973C559.291 682.917 559.87 683.142 558.528 682.326C558.789 679.789 574.631 664.672 577.817 661.499L620.043 619.893C653.318 586.17 686.778 552.629 720.421 519.274C699.598 500.688 678.674 479.024 659.09 459.034L576.482 375.186C569.377 368.103 563.531 360.406 556.176 353.485C559.253 353.042 562.342 352.691 565.44 352.43C562.001 348.761 558.485 345.165 554.894 341.644Z"/><path fill="#1393B8" d="M812.481 524.341C814.92 527.492 818.043 530.368 820.914 533.164C809.1 543.959 798.452 556.023 786.86 567.353L695.334 656.617C687.085 664.802 678.935 673.086 670.887 681.468C667.075 685.391 661.205 691.795 657.261 695.022C646.71 695.554 633.214 694.983 622.345 695C602.218 695.128 582.093 695.453 561.972 695.974C561.426 691.47 561.061 687.526 560.969 682.973C569.966 682.483 583.143 682.967 592.67 682.948L653.476 682.818C660.04 676.687 667.137 669.182 673.607 662.784C686.784 649.959 699.835 637.004 712.758 623.922L812.481 524.341Z"/><path fill="#1393B8" d="M556.176 353.485C559.253 353.042 562.342 352.691 565.44 352.43C600.055 389.369 638.699 427.061 674.847 462.75C685.727 473.435 696.551 484.177 707.318 494.976C712.979 500.669 720.246 508.631 726.046 513.684C724.2 515.526 722.297 517.477 720.421 519.274C699.598 500.688 678.674 479.024 659.09 459.034L576.482 375.186C569.377 368.103 563.531 360.406 556.176 353.485Z"/><path fill="#A3EEF3" d="M733.328 514.961C758.743 515.713 790.333 515.564 815.731 515.041C807.237 523.826 794.678 535.176 785.614 543.883C768.972 560.037 752.445 576.309 736.034 592.698C713.946 615.139 691.613 637.338 669.039 659.29C663.232 664.872 657.143 672.057 651.413 677.061C647.221 677.642 629.698 677.174 624.57 677.139C606.086 676.944 587.599 677.038 569.118 677.42C574.805 673.14 584.145 663.509 589.485 658.198L622.05 625.626L694.301 554.01C707.503 540.895 719.915 527.966 733.328 514.961Z"/><path fill="#FCFDFD" d="M212.898 342.036L310.251 341.063C324.279 354.834 338.172 368.743 351.927 382.787L418.006 448.432L459.943 490.22C464.783 495.083 479.72 509.899 482.888 514.925C480.083 517.453 477.331 520.039 474.635 522.683C476.441 523.25 477.112 523.335 478.61 524.537C480.909 529.453 468.559 535.391 464.787 538.99C458.418 546.455 447.178 556.901 439.932 564.578L415.147 591.002C411.043 595.323 407.085 600.003 402.408 603.651C390.252 613.13 380.582 625.037 370.294 636.387C364.537 642.739 357.703 648.388 352.298 655.245C350.52 657.502 345.108 660.534 343.034 662.954C336.58 670.025 330.291 677.348 322.827 683.409C320.236 685.513 314.303 684.746 311.303 683.84C309.084 683.178 294.715 683.491 291.435 683.486L243.397 683.496C235.321 683.496 223.832 683.813 216.085 683.061C220.186 678.048 228.091 670.621 232.86 665.87L268.098 631.186L385.282 515.677C381.377 511.257 375.103 505.316 370.817 501.02L336.307 467.02L258.105 388.779C245.551 376.317 232.806 364.114 220.755 351.156C217.943 348.132 215.243 345.454 212.898 342.036Z"/><path fill="#0381B8" d="M474.635 522.683C476.441 523.25 477.112 523.335 478.61 524.537C480.909 529.453 468.559 535.391 464.787 538.99C458.418 546.455 447.178 556.901 439.932 564.578L415.147 591.002C411.043 595.323 407.085 600.003 402.408 603.651C390.252 613.13 380.582 625.037 370.294 636.387C364.537 642.739 357.703 648.388 352.298 655.245C350.52 657.502 345.108 660.534 343.034 662.954C336.58 670.025 330.291 677.348 322.827 683.409C320.236 685.513 314.303 684.746 311.303 683.84C316.566 680.934 346.369 650.35 352.525 644.22L438.255 559.345C447.719 550.063 456.437 540.411 466.19 531.339L474.635 522.683Z"/><defs><linearGradient id="gradient_1" gradientUnits="userSpaceOnUse" x1="470.43613" y1="525.90021" x2="477.992" y2="528.18207"><stop offset="0" stop-color="#0C8AA8"/><stop offset="1" stop-color="#28AAC2"/></linearGradient></defs><path fill="url(#gradient_1)" d="M474.635 522.683C476.441 523.25 477.112 523.335 478.61 524.537C480.909 529.453 468.559 535.391 464.787 538.99C464.604 534.513 465.592 534.559 468.701 531.136L468.213 530.628L467.115 531.561L466.19 531.339L474.635 522.683Z"/><defs><linearGradient id="gradient_2" gradientUnits="userSpaceOnUse" x1="332.07535" y1="694.78302" x2="366.92465" y2="500.21698"><stop offset="0" stop-color="#93F0F4"/><stop offset="1" stop-color="#C7F1F5"/></linearGradient></defs><path fill="url(#gradient_2)" d="M390.588 517.493C394.348 518.267 411.973 518.046 416.69 518.051C434.936 518.114 453.182 518.085 471.428 517.963C449.1 538.151 422.884 569.033 400.958 588.272C388.701 599.026 316.666 675.593 309.423 677.837C284.343 676.616 253.08 677.327 227.739 677.464C232.858 673.586 239.059 667.175 243.659 662.659C250.154 656.369 256.612 650.042 263.035 643.678L321.509 585.512C343.675 563.068 369.14 540.177 390.588 517.493Z"/><path fill="#FCFDFD" d="M383.214 341.916L450.228 341.393C460.08 341.323 471.917 340.933 481.633 341.226C486.938 344.821 494.269 352.293 499.07 356.933L529.81 387.192C547.503 404.469 565.012 421.932 582.336 439.578C590.045 447.45 597.471 455.627 605.212 463.442L632.941 491.658C640.597 499.323 647.208 505.186 654.573 513.515C646.128 522.964 634.031 533.738 624.779 542.921L555.237 611.718C537.186 629.668 519.669 648.234 501.418 665.914C497.101 670.096 487.898 679.99 483.838 683.295C451.736 682.957 419.632 682.837 387.529 682.935C405.555 662.468 427.234 644.048 446.204 624.468C480.897 588.66 517.887 554.28 552.366 518.338C545.654 515.123 516.668 482.541 510.252 475.983C475.014 439.965 438.666 405.132 403.189 369.357C398.192 364.317 392.704 356.633 386.775 352.892C386.654 350.092 386.836 348.64 387.141 345.91L383.214 341.916Z"/><defs><linearGradient id="gradient_3" gradientUnits="userSpaceOnUse" x1="477.086" y1="425.548" x2="463.04581" y2="437.89633"><stop offset="0" stop-color="#1E99B2"/><stop offset="1" stop-color="#28B1C1"/></linearGradient></defs><path fill="url(#gradient_3)" d="M387.141 345.91L470.262 427.584L516.823 473.834C529.055 486.07 544.638 501.282 556.178 513.956C554.981 515.353 553.62 517.032 552.366 518.338C545.654 515.123 516.668 482.541 510.252 475.983C475.014 439.965 438.666 405.132 403.189 369.357C398.192 364.317 392.704 356.633 386.775 352.892C386.654 350.092 386.836 348.64 387.141 345.91Z"/><defs><linearGradient id="gradient_4" gradientUnits="userSpaceOnUse" x1="517.6684" y1="681.73737" x2="525.33258" y2="511.74014"><stop offset="0" stop-color="#94EEF3"/><stop offset="1" stop-color="#CCF4F6"/></linearGradient></defs><path fill="url(#gradient_4)" d="M562.969 516.716L645.078 516.486C641.725 518.758 638.752 522.071 635.704 524.747C626.389 532.922 618.426 542.324 609.747 550.987L526.067 633.189L495.831 663.366C492.323 666.823 484.593 674.739 480.862 677.472C453.833 677.866 426.42 677.282 399.298 677.583C409.757 668.847 424.372 653.565 434.605 643.569L525.501 552.997C530.207 548.328 559.602 517.968 562.969 516.716Z"/><path fill="#FCFDFD" d="M844.987 375.03C845.031 384.628 846.393 397.812 846.084 406.755C847.341 405.354 871.461 383.143 872.478 382.611C870.67 387.137 852.056 401.879 849.412 407.967C850.707 409.619 875.679 408.331 880.145 409.488C876.828 410.676 854.851 409.951 848.11 410.87L848.602 411.527C852.078 416.122 868.563 432.73 869.561 434.859C865.643 431.91 849.802 416.956 846.225 413.189C845.959 418.741 845.606 441.444 844.519 445.184C843.037 436.76 843.973 422.549 842.885 413.047C838.875 416.8 822.809 432.448 819.008 434.782C825.883 427.256 835.105 419.145 840.287 410.949C836.45 410.896 834.176 410.752 830.369 410.292L831.295 408.763L840.816 408.729C834.024 401.092 827.734 394.648 820.946 387.22L821.987 386.77C824.796 389.582 839.734 404.927 842.526 405.371C843.621 395.821 844.259 387.396 844.001 377.739L844.987 375.03Z"/><path fill="#FCFDFD" d="M661.513 805.525C662.818 795.44 662.172 781.215 662.854 770.535C664.771 774.388 663.234 797.431 664.635 804.467C670.838 799.921 675.238 795.736 681.003 790.704L681.816 790.664L681.774 790.136L682.225 789.883L682.18 790.268L681.5 790.373L681.529 790.363L681.644 790.947C677.178 796.047 671.212 801.756 666.4 806.822L694.509 806.975L693.15 808.019C682.798 807.924 676.386 809.044 666.87 809.309C669.71 813.656 680.346 823.774 684.556 828.627C678.96 825.475 669.847 815.315 664.058 810.658C663.795 816.291 663.621 848.019 662.545 850.95C661.208 843.564 662.16 820.016 661.875 810.969C656.014 816.219 647.207 825.138 641.288 829.238C645.662 823.999 655.611 814.866 658.296 810.248L658.053 809.716C656.233 809.538 652.41 809.411 650.899 808.886C644.58 809.931 628.018 808.678 621.83 807.643C625.646 807.526 630.398 807.298 634.126 807.646C639.376 807.746 653.645 807.12 658.72 806.689C654.367 800.079 644.523 793.676 639.135 786.05C646.678 792.196 653.905 799.931 661.513 805.525Z"/><path fill="#57BED8" d="M621.83 807.643C625.646 807.526 630.398 807.298 634.126 807.646C638.334 809.724 648.097 807.582 650.899 808.886C644.58 809.931 628.018 808.678 621.83 807.643Z"/><path fill="#FCFDFD" d="M659.506 180.448L660.945 180.072C661.098 188.953 661.514 198.379 661.597 207.147C666.88 202.066 671.052 198.832 676.556 194.178L677.571 194.651C672.592 199.337 668.302 203.401 663.632 208.376C673.501 208.734 685.975 208.083 695.326 209.243C687.946 210.57 671.756 209.99 663.158 210.463C668.668 215.967 674.322 221.399 679.241 227.429L677.914 227.491C675.327 224.29 665.126 215.429 661.5 212.175C661.615 218.199 661.333 240.65 660.55 246.087L660.259 245.88C659.231 236.154 659.158 223.249 658.547 213.044C654.114 216.163 647.783 222.661 642.92 226.593L642.159 226.725L642.197 227.101L641.729 227.302C642.993 225.187 654.482 213.544 657.214 210.67C650.919 210.473 645.124 210.622 638.746 210.181C636.385 210.162 628.282 210.157 626.467 209.36C630.198 209 632.733 208.742 636.459 208.839C643.292 208.483 649.389 208.409 656.395 207.911C651.482 202.137 646.353 196.552 641.018 191.167L640.898 189.64C646.863 194.648 652.911 200.675 658.791 205.977C658.768 196.963 659.316 189.28 659.506 180.448Z"/><path fill="#DBF5F6" d="M638.746 210.181C636.385 210.162 628.282 210.157 626.467 209.36C630.198 209 632.733 208.742 636.459 208.839C638.34 208.899 642.602 208.862 644.169 209.435C641.875 209.911 641.054 210.101 638.746 210.181Z"/><path fill="#FCFDFD" d="M362.587 174.501C364.001 183.697 362.876 194.782 363.487 204.604C369.57 200.012 375.609 193.237 381.286 189.096C376.224 195.519 370.536 201.076 365.476 207.217C372.208 208.121 392.911 207.477 395.773 209.048C392.6 209.77 370.403 209.907 365.265 210.119C368.721 213.933 375.247 220.217 378.04 223.816L376.441 223.862C372.251 219.828 368.297 215.79 363.633 212.313C362.61 223.739 363.471 234.37 362.961 245.62C360.259 238.855 362.239 222.916 359.455 212.509C355.056 215.985 351.369 220.046 347.13 223.115L346.904 222.887C349.231 219.988 356.808 212.978 356.781 210.993C351.859 208.748 334.15 209.773 326.563 208.752C335.162 207.232 348.262 208.245 357.547 207.584C353.666 202.419 347.025 195.692 342.44 190.811C348.323 194.266 354.254 200.717 360.649 204.999C361.164 196.546 361.567 182.44 362.587 174.501Z"/><path fill="#FCFDFD" d="M361.444 808.255C361.579 802.576 361.449 775.701 362.481 772.172C363.835 776.03 363.329 801.268 363.909 807.987C372.87 801.554 380.589 792.781 389.333 786.018C382.145 794.025 373.13 802.268 365.351 809.882C374.376 809.922 383.329 810.462 392.172 810.477L393.003 811.576L365.259 812.061C372.415 819.791 382.942 826.961 388.887 835.533C380.533 828.007 372.425 820.397 363.703 813.252C363.554 818.986 363.486 843.513 362.331 847.608C361.488 840.518 361.7 821.435 361.536 813.584C356.032 818.546 349.254 823.869 343.505 828.682C341.306 830.524 340.514 831.991 337.964 833.656L337.747 833.268C342.918 828.828 355.114 816.823 359.539 812.022C351.038 812.079 332.989 812.341 324.986 811.546C328.885 810.345 354.064 809.924 359.689 809.872C356.864 806.776 338.856 789.886 338.428 787.972C346.181 794.29 353.438 801.711 361.444 808.255Z"/><path fill="#FCFDFD" d="M182.97 579.931C183.255 590.19 183.481 600.45 183.647 610.711C187.479 608.014 205.96 589.711 206.577 589.618C201.472 597.412 191.645 604.576 187.584 611.749C196.65 612.154 208.225 611.503 216.708 612.68C206.006 613.581 196.645 612.734 186.099 614.369L185.792 614.844C190.285 615.038 205.822 630.516 209.308 634.367C201.565 629.628 197.299 622.59 188.961 618.38L187.895 618.517C187.493 617.897 187.023 617.278 186.588 616.676C186.337 616.767 185.456 617.079 185.254 617.2C182.287 618.991 183.65 644.559 182.825 649.921L182.716 650.602L182.53 651.167C181.621 643.759 182.445 622.176 180.688 617.828L179.783 617.456C176.089 619.222 164.654 631.777 160.393 635.616C161.683 631.341 175.23 619.505 179.13 614.794L179.567 614.261L168.642 613.957C166.469 613.664 165.472 613.696 163.593 612.677C168.895 612.12 174.512 611.948 179.858 611.691C174.32 606.118 167.791 600.41 162.003 594.863L162.895 594.184C167.646 599.247 175.719 605.808 181.208 610.473C180.683 608.165 180.095 606.265 180.771 603.801C182.348 598.06 182.052 589.874 182.007 584.03L182.97 579.931Z"/><path fill="#FCFDFD" d="M181.533 377.573C187.394 371.933 194.767 364.989 201.473 360.409C195.838 367.017 189.099 372.662 183.538 378.912C183.494 382.664 183.01 379.577 182.592 381.637C188.638 388.354 194.248 392.966 199.584 400.686C198.098 399.869 183.684 385.801 181.193 383.464C181.256 390.945 181.661 401.205 180.556 408.337C179.893 399.731 179.364 391.703 178.049 383.161C174.336 387.59 163.723 397.89 159.235 401.534C164.087 394.662 172.259 387.222 175.825 381.454L162.532 381.472L159.438 380.769L162.227 380.039C167.311 379.991 170.914 379.963 176.003 379.356C171.581 374.219 162.162 365.729 159.205 360.973C165.402 366.175 171.201 372.008 177.499 377.18C179.584 370.918 179.116 369.082 178.989 362.397L180.502 364.201C181.214 368.991 181.577 372.687 181.533 377.573Z"/><path fill="#FCFDFD" d="M846.67 655.562C846.691 645.568 846.498 634.686 847.306 624.794C848.6 633.971 848.442 646.662 848.535 656.202C853.822 652.377 858.683 647.543 864.319 644.202C860.414 648.71 855.056 652.643 850.675 656.866C857.016 656.862 863.714 656.747 870.012 657.03C868.499 657.306 867.174 657.495 865.696 657.934C860.347 657.979 855.237 657.99 849.893 658.343C852.639 661.674 867.04 673.934 870.712 674.912L872.462 673.846L873.356 674.089L873.858 675.122C873.076 677.268 871.324 678.449 869.196 677.27L868.835 676.53C868.518 675.903 867.849 674.215 867.397 673.902C860.843 669.352 854.844 664.863 848.745 659.719C848.088 670.079 848.867 688.218 847.2 697.619C846.375 685.506 846.689 672.374 846.527 660.1C842.487 662.493 835.839 668.179 831.26 671.308C834.905 667.069 840.466 662.754 844.732 658.675C836.614 658.454 828.502 658.091 820.397 657.587C823.657 656.596 839.95 656.74 844.465 656.696C840.197 652.888 836.488 649.992 831.977 646.519L832.488 645.766C836.768 648.868 842.169 653.026 846.67 655.562Z"/><path fill="#FCFDFD" d="M413.036 152.344C413.092 156.954 413.385 160.79 413.772 165.354C416.747 162.609 419.691 159.83 422.601 157.016C420.989 159.944 416.674 163.718 417.025 166.457C418.491 167.197 417.874 166.971 419.693 166.908L419.984 168.44C418.302 168.589 418.345 168.529 416.821 169.206C416.701 171.727 421.199 175.764 423.338 178.356C420.988 176.826 416.398 172.827 414.06 170.903C413.385 175.842 413.037 182.531 412.524 187.771C411.453 182.53 412.313 177.61 410.756 170.886C407.99 172.712 405.447 175.309 403.017 177.598C403.971 175.678 407.52 171.066 408.974 168.999C405.831 169.004 401.149 169.223 398.269 168.258C400.514 166.898 406.432 166.789 409.16 166.604C406.455 163.24 404.438 161.219 401.806 157.511C404.168 159.203 408.476 164.456 410.949 163.497C411.951 161.349 411.838 156.251 411.978 153.518L413.036 152.344Z"/><path fill="#FCFDFD" d="M803.614 721.391C803.731 719.174 804.191 706.204 805.193 705.351C805.561 711.074 806.302 716.195 806.728 721.789C809.168 719.638 811.641 717.526 814.148 715.453C812.901 717.377 809.363 722.175 808.967 723.856L808.206 725.496L806.538 727.002C805.815 728.151 805.258 740.904 805.022 743.321C803.704 737.721 803.904 732.262 803.823 726.525C800.248 729.133 798.541 731.121 794.316 733.401C797.139 730.461 799.066 728.864 801.257 725.385C797.132 725.176 792.811 725.054 788.736 724.473C791.271 723.347 798.859 723.379 801.745 723.333C800.218 720.709 796.876 717.08 794.78 714.664C797.589 716.968 800.69 719.209 803.614 721.391Z"/><path fill="#FCFDFD" d="M597.77 851.832C597.753 847.863 597.594 843.95 598.314 840.047L598.671 839.741C599.633 844.088 599.387 847.334 599.293 851.732C601.668 850.068 604.299 848.121 606.762 846.645L600.923 854.111C605.101 854.464 608.124 854.315 612.268 855.295C610.644 856.209 603.128 856.08 600.947 856.053C602.71 858.341 604.46 860.504 605.989 862.956C603.939 861.306 601.564 859.287 599.461 857.771C599.376 861.337 599.451 866.227 598.334 869.544C597.333 867.642 597.454 860.399 597.461 858.081C594.441 859.976 592.077 861.723 589.214 863.855C591.42 860.665 593.238 858.908 595.962 856.111L587.412 856.007L587.079 855.468L587.358 854.57C590.317 854.416 593.69 854.311 596.6 854.038C594.165 851.281 591.203 848.091 589.032 845.199C592.035 847.405 594.862 849.505 597.77 851.832Z"/><path fill="#FCFDFD" d="M751.119 718.516C752.839 724.981 751.818 737.306 752.223 744.493C753.155 743.592 754.605 741.871 755.647 741.664C754.841 743.172 754.662 743.465 753.625 744.818C762.189 744.713 769.793 744.744 778.352 745.206C771.245 746.541 760.921 745.848 753.493 746.084C754.694 747.94 756.006 749.889 757.132 751.777L751.983 746.42C751.991 749.487 751.599 769.776 752.551 771.198L754.861 772.338L755.058 773.062C754.272 774.15 754.286 774.046 752.994 774.485C749.611 772.199 750.695 751.466 750.663 746.493C749.655 747.858 748.995 749.02 747.558 749.896C748.322 748.185 748.972 747.512 750.121 746.069L737.686 745.972L733.477 745.045C739.221 744.818 744.97 744.706 750.719 744.708C750.731 736.333 750.579 726.854 751.119 718.516Z"/><path fill="#FCFDFD" d="M870.4 477.094C871.643 481.573 871.401 491.749 871.407 496.753L875.247 493.359L875.736 493.492C874.972 495.633 874.805 495.731 873.279 497.491L873.433 498.118C878.9 497.925 884.373 497.968 889.836 498.245C886.724 499.027 883.792 499.478 880.569 499.44C877.706 499.656 875.379 499.86 872.524 500.271C874.43 502.445 876.031 504.034 877.365 506.608C875.325 504.775 873.078 502.828 871.116 500.944C871.239 506.235 871.338 511.093 870.585 516.351C870.375 514.524 869.423 502.207 869.061 501.614L866.939 501.346L866.47 500.442C864.122 499.455 858.532 499.215 855.679 498.941C859.728 498.115 863.553 498.067 867.662 497.894L868.402 496.837L869.349 496.659C870.478 493.841 869.891 481.691 870.4 477.094Z"/><path fill="#DBF5F6" d="M873.433 498.118C878.9 497.925 884.373 497.968 889.836 498.245C886.724 499.027 883.792 499.478 880.569 499.44L881.174 498.875C880.027 498.193 875.436 498.335 873.433 498.118Z"/><path fill="#A6E1EB" d="M162.982 784.927C163.735 789.425 162.944 793.912 163.76 797.951C164.725 798.013 164.25 798.03 165.311 797.33L165.712 797.956L164.496 799.48C165.047 799.951 177.555 800.57 179.471 800.811C174.281 801.33 170.802 801.648 165.532 801.61L165.28 802.036C166.079 803.076 166.867 804.127 167.706 805.135L166.791 805.52L163.396 801.74C163.448 804.419 163.858 814.036 162.841 815.857C161.854 811.277 161.942 806.13 161.925 801.45C160.433 803.323 159.829 804.163 158.056 805.718C158.236 804.34 159.738 802.535 160.639 801.31C156.511 801.265 152.335 801.302 148.237 800.85C150.489 799.864 157.895 799.926 160.52 799.895C159.287 798.52 157.483 796.635 156.403 795.218L156.563 794.753L155.942 794.205L156.334 794.41L156.242 794.814L157.028 794.951C158.667 796.471 160.325 797.973 161.999 799.457C162.072 793.707 162.163 790.584 162.982 784.927Z"/><path fill="#DBF5F6" d="M252.28 747.856C254.686 747.887 261.624 748.652 262.726 746.584C261.74 744.235 258.891 741.902 256.933 739.959C259.611 741.784 262.071 743.616 264.824 745.432C264.459 746.671 264.133 747.792 263.829 749.054L264.38 749.869C265.963 750.088 266.785 750.342 268.319 749.871C270.308 751.946 275.189 756.729 276.604 758.868C273.158 755.978 270.582 753.738 267.397 750.584L267.402 751.164C267.41 754.22 267.47 774.222 266.328 775.368C265.738 767.252 265.677 758.349 265.474 750.155C261.057 752.566 257.819 757.242 253.744 760.558C254.427 759.161 261.461 751.233 263.028 749.396C258.288 749.572 253.292 749.241 248.534 749.025L245.948 748.278C246.588 747.813 251.094 747.888 252.28 747.856Z"/><path fill="#DBF5F6" d="M273.182 255.493C273.401 257.749 274.34 272.368 274.981 273.501L275.374 272.562C275.949 274.14 275.735 274.439 275.453 276.101C277.043 276.38 278.361 276.572 279.965 276.758L279.758 277.42L276.2 277.572L276.014 277.997L276.125 278.099L275.467 279.077L274.715 278.871L274.237 279.234C273.31 285.035 274.271 293.551 273.301 300.683C272.405 294.326 272.469 285.167 272.308 278.489C268.955 280.815 266.036 282.991 262.307 284.698C264.736 282.33 268.375 279.676 271.134 277.543C267.944 277.4 263.724 277.364 260.713 276.629L260.75 275.391C264.568 276.33 268.493 276.064 272.41 275.863C272.806 269.063 272.469 262.155 273.182 255.493Z"/><path fill="#FCFDFD" d="M615.154 158.357C615.809 160.364 615.826 163.349 616.18 165.732L616.758 165.992L619.011 163.996L619.691 164.194C619.731 165.672 619.145 165.704 617.748 167.202C618.502 168.462 619.727 167.744 622.269 168.746L622.308 169.396C620.769 169.544 619.587 169.69 618.06 169.929L617.718 170.604C618.846 171.671 619.282 171.888 619.851 173.323L619.29 173.476L616.724 171.627C615.665 172.287 615.923 175.921 614.804 178.673C613.9 175.924 613.988 173.873 613.873 170.993L610.75 173.718C609.734 172.959 611.77 171.383 611.1 169.643L603.945 169.135C606.538 168.715 609.124 168.254 611.703 167.754C611.206 166.518 610.352 165.152 610.642 164.167L613.858 166.962C614.107 163.934 614.256 161.282 615.154 158.357Z"/><path fill="#FCFDFD" d="M825.132 329.515C826.445 332.134 826.006 335.74 827.411 337.131C828.808 335.923 828.236 336.091 829.837 335.659C829.918 337.056 829.476 337.076 828.398 338.544C830.453 339.791 832.995 338.319 834.614 339.436C832.14 340.666 830.399 340.419 827.955 341.304C828.778 342.409 828.971 342.871 829.587 344.085L829.316 344.681L826.668 343.126C825.782 344.033 826.08 346.352 826.046 347.982L825.281 349.098C824.047 347.089 825.577 345.275 824.136 342.898L824.447 342.847L824.435 342.805C823.757 343.184 823.214 343.47 822.53 343.816C820.495 341.969 822.78 343.8 822.168 341.233C819.842 339.94 817.215 339.765 814.535 339.34C816.661 339.158 820.586 339.12 822.113 337.918C821.41 336.683 821.457 337.271 821.478 336.061L822.072 335.68C822.704 336.001 823.053 336.19 823.662 336.575L824.153 336.893C824.936 335.272 824.977 331.539 825.132 329.515Z"/><path fill="#FCFDFD" d="M267.008 724.41C267.094 727.116 267.053 743.72 267.631 744.677L268.107 744.564L269.363 744.766C268.949 746.638 268.758 745.855 269.641 747.255C272.849 748.691 282.816 748.028 286.831 747.908L286.14 748.928C283.027 749.045 270.259 749.155 268.319 749.871C266.785 750.342 265.963 750.088 264.38 749.869L263.829 749.054C264.133 747.792 264.459 746.671 264.824 745.432C266.108 742.007 266.034 731.726 265.997 728.124L267.008 724.41Z"/><path fill="#FCFDFD" d="M876.667 346.343C877.223 348.338 876.509 348.941 877.805 350.995L877.531 350.021L878.079 351.011L878.411 350.191L878.965 350.306L879.279 351.269C878.375 352.734 878.42 352.264 878.16 353.819C879.944 353.7 880.29 353.61 882.08 354.056L882.242 354.642L879.719 356.216L880.839 358.303L880.518 358.812C879.423 358.257 878.542 357.653 877.274 357.711C876.859 358.915 876.342 360.051 875.837 361.22L875.434 361.24L874.576 358.067C873.931 357.742 873.363 357.439 872.731 357.096C871.634 355.045 871.066 352.777 873.499 351.417L874.949 351.892L875.283 351.505C875.543 348.944 875.449 348.51 876.667 346.343Z"/><path fill="#FCFDFD" d="M557.325 202.665L565.325 201.766L565.606 201.236L564.463 198.994L564.772 198.513C565.764 199.008 566.138 199.238 567.059 199.859L567.817 199.415L568.18 195.7L568.814 195.236C570.068 197.186 568.883 198.149 570.282 199.838L571.963 199.445L572.278 200.064L571.135 201.516C572.396 202.66 574.144 202.824 575.939 203.27C574.233 204.807 573.859 202.892 571.657 204.553C571.836 205.455 572.039 206.352 572.266 207.242C571.351 206.491 570.834 205.764 569.89 205.703L567.767 205.81C564.582 206.172 565.75 207.715 564.097 207.152C564.426 206.219 564.744 205.282 565.053 204.342C563.622 203.644 559.34 203.173 557.325 202.665Z"/><path fill="#0381B8" d="M845.723 843.982C846.723 844.634 846.52 844.546 847.07 845.609C849.16 845.629 848.318 845.975 849.775 844.798L849.961 845.609C848.834 847.539 845.809 848.861 845.588 849.275C844.6 851.127 845.223 852.432 842.424 853.917C841.465 853.732 840.912 853.72 839.941 853.816C839.09 854.005 837.262 853.155 836.392 852.812L836.237 852.203C838.586 851.696 841.294 847.199 843.574 844.913L844.141 845.88C844.713 845.139 845.109 844.679 845.723 843.982Z"/><path fill="#FCFDFD" d="M750.582 273.117C751.049 272.672 750.792 272.974 751.222 272.114C750.112 269.726 745.78 265.409 743.704 262.574C746.35 263.969 751.598 270.482 753.557 270.729L755.451 270.297C755.706 270.366 755.961 270.434 756.216 270.503L758.844 268.196C758.204 269.659 758.053 269.998 757.159 271.4L757.223 272.785L758.061 273.477L760.069 275.251L757.758 275.176C757.265 276.223 757.626 275.921 756.912 276.305L755.358 276.893L753.856 276.791C752.764 276.463 753.134 276.576 751.895 276.734L749.35 277.933C749.848 277.072 750.264 276.068 750.681 275.155L750.582 273.117Z"/><path fill="#FCFDFD" d="M718.663 225.859L719.375 229.404C720.41 229.616 720.768 229.734 721.767 230.091C721.008 231.092 721.146 230.831 720.612 231.979C722.398 231.777 723.684 231.256 724.878 232.689C723.398 234.085 723.239 232.519 721.22 234.008L721.504 234.463L723.752 234.384L724.017 234.994L723.353 235.889C722.414 236.083 721.488 236.218 720.532 236.3L720.417 237.356C719.846 238.767 720.261 238.152 718.913 239.04L718.955 239.287L719.598 239.021L718.865 239.449C718.399 238.283 718.248 237.633 717.933 236.428L717.257 236.078L715.502 236.909L714.973 236.549C715.001 235.441 714.878 236 715.847 234.932C714.536 233.079 713.929 234.215 712.91 232.74L713.703 232.061C714.765 232.162 715.827 232.271 716.887 232.389L716.193 230.805C716.476 229.845 716.277 230.304 717.6 229.581C718.291 228.222 718.375 227.336 718.663 225.859Z"/><path fill="#FCFDFD" d="M409.07 840.246C410.717 841.574 411.146 844.26 411.731 846.353C413.674 846.777 416.455 846.998 418.493 847.222L411.393 849.729C410.935 851.219 410.511 853.322 410.144 854.886C410.033 855.141 409.646 855.619 409.463 855.868C408.644 854.392 408.781 851.779 408.685 849.898L401.49 847.434L408.495 846.506L409.07 840.246Z"/><path fill="#FCFDFD" d="M206.014 123.284C206.745 123.952 207.366 125.687 208.526 126.858C210.216 126.864 210.71 126.85 212.424 127.118C211.921 128.555 208.545 129.649 208.592 130.468C208.644 131.361 209.834 132.005 209.412 133.865C208.212 133.719 207.893 132.959 206.797 131.857C205.528 131.299 206.185 131.451 204.768 131.64C203.575 133.039 204.109 132.85 202.619 133.389C202.426 130.456 203.369 131.154 202.204 128.813C200.578 128.148 200.963 128.532 199.826 127.393C204.387 126.422 204.096 127.524 206.014 123.284Z"/><path fill="#FCFDFD" d="M234.029 712.246L234.753 712.923C235.91 719.129 238.73 716.05 239.761 718.634C238.523 718.893 237.282 719.143 236.04 719.382C234.737 720.678 234.96 722.399 234.569 724.702C234.065 724.258 233.799 723.806 233.387 723.252C233.2 721.893 233.089 721.25 232.748 719.925C230.841 719.292 230.168 719.611 228.584 718.211L228.875 717.454C233.3 716.511 232.617 716.389 234.029 712.246Z"/><path fill="#FCFDFD" d="M434.245 222.313C435.121 225.003 435.299 226.83 438.256 227.98C435.194 231.132 435.618 230.948 433.852 234.889C433.639 234.165 433.405 233.447 433.151 232.736C432.406 230.681 431.11 228.861 429.08 227.926L429.173 228.419L428.905 227.934L430.072 227.995C432.32 225.822 432.87 225.246 434.245 222.313Z"/><path fill="#A6E1EB" d="M842.568 226.759C844.237 227.972 843.955 229.775 844.094 231.737L846.197 230.295C848.136 230.903 845.853 229.915 848.337 229.467C847.081 231.279 845.67 232.133 843.904 233.461L844.711 233.786C848.089 235.123 848.37 235.247 851.327 237.297C849.549 236.66 845.738 234.944 844.198 235.519L844.052 236.895C843.967 239.03 844.332 238.999 843.273 240.333L843.752 240.354L843.272 240.519C842.861 239.12 842.762 236.132 842.647 234.543C840.386 236.136 838.851 237.149 836.452 238.56L841.584 233.681C840.502 232.899 839.426 232.106 838.358 231.304L838.165 230.529L837.942 230.473C839.417 231.074 840.897 231.663 842.382 232.24L842.568 226.759Z"/><path fill="#FCFDFD" d="M307.511 226.393C309.303 227.886 308.049 229.213 311.804 231.835L312.322 231.683C309.875 232.776 308.647 236.292 307.945 238.685C306.817 237.227 307.012 236.017 306.885 234.019C305.505 232.094 304.016 233.014 302.393 231.434L302.456 231.687L302.894 231.907L303.54 230.857C306.418 230.181 306.328 229.683 307.291 227.017L307.511 226.393Z"/><path fill="#FCFDFD" d="M378.634 140.265C379.093 140.663 379.497 141.257 379.736 141.807C381.242 145.278 383.951 145.379 387.621 146.167C382.724 147.436 380.689 145.803 379.511 151.258L379.453 151.415L379.01 151.565L378.876 151.079C377.882 147.562 377.949 147.853 375.131 146.281C374.769 144.56 376.732 144.843 377.967 143.022C377.968 143.021 378.581 140.484 378.634 140.265Z"/><path fill="#FCFDFD" d="M784.736 173.827C785.515 174.702 785.601 174.82 785.74 176.029C786.147 179.574 787.721 177.993 790.039 179.495L789.539 180.282C788.059 180.719 787.001 180.806 786.145 182.027C785.805 183.639 785.749 185.109 784.601 186.165C783.59 181.346 783.472 182.076 779.197 179.996C784.038 178.06 783.585 178.901 784.736 173.827Z"/><path fill="#FCFDFD" d="M368.781 266.318L369.529 267.265C370.227 272.884 371.036 269.284 374.284 272.148L373.879 272.828C369.284 274.285 370.34 274.651 369.255 279.027C368.718 277.961 368.117 275.812 367.578 274.45C366.296 273.068 364.763 273.077 362.825 272.721C367.194 270.852 367.966 271.291 368.781 266.318Z"/><path fill="#FCFDFD" d="M200.671 678.851C201.745 682.587 201.713 681.79 204.872 684.4C201.672 686.16 201.953 686.279 201.28 689.656L200.4 689.885C199.947 688.243 199.796 687.804 199.112 686.247C197.557 684.847 195.771 684.949 193.586 684.692C197.741 682.885 198.663 682.898 200.671 678.851Z"/><path fill="#FCFDFD" d="M448.142 804.299C449.132 805.175 448.904 806.059 449.78 807.077C451.217 808.747 454.949 808.838 457.023 809.174C454.627 809.653 451.63 809.514 449.872 810.783C448.833 812.284 448.981 813.956 448.887 815.829L448.046 815.426C446.37 813.555 448.23 812.442 446.252 810.41C444.85 810.149 443.881 810.106 442.72 809.284C446.758 807.672 446.827 808.227 448.142 804.299Z"/><path fill="#DBF5F6" d="M182.592 381.637C183.01 379.577 183.494 382.664 183.538 378.912C187.247 380.706 205 379.85 211.359 380.489L212.009 380.549L212.399 380.588C202.692 381.651 189.791 380.695 182.592 381.637Z"/><path fill="#FCFDFD" d="M697.804 738.694L698.781 739.348C699.652 743.646 699.482 742.718 703.266 744.601L702.683 745.08L703.116 744.472L702.708 744.248C700.818 747.065 702.162 743.925 699.268 746.333C698.998 748.098 698.921 748.406 698.356 750.102C697.471 748.931 697.412 748.412 697.004 747.024L696.863 746.534C695.464 744.9 694.569 745.709 693.047 744.524C697.044 742.426 697.062 743.138 697.804 738.694Z"/><path fill="#FCFDFD" d="M858.728 594.372C859.679 595.382 859.883 597.699 860.134 599.202C861.736 600.595 862.09 599.99 864.461 600.781L864.012 601.412C859.192 602.675 860.082 602.606 858.955 607.192C858.134 606.029 858.037 604.322 857.791 602.851C856.314 601.857 854.943 601.58 853.318 600.785C855.105 600.63 855.201 600.611 856.911 600.065C858.477 598.376 858.274 596.962 858.728 594.372Z"/><path fill="#FCFDFD" d="M168.068 424.773C168.969 427.117 169.377 427.415 171.201 429.182L172.115 429.317C169.988 431.3 169.172 432.606 168.048 435.255C166.222 431.86 167.657 432.74 164.034 429.779C164.857 428.342 166.488 427.964 168.068 424.773Z"/><path fill="#FCFDFD" d="M204.328 439.4C206.548 441.784 203.761 442.782 208.8 444.277C209.099 445.614 206.51 445.922 205.509 447.237C205.508 447.238 204.808 449.631 204.752 449.823L204.179 450.289C201.612 447.164 205.513 447.188 199.963 445.266L200.068 444.674C203.176 443.468 203.041 443.364 204.104 440.104L204.328 439.4Z"/><path fill="#FCFDFD" d="M717.05 866.309C718.187 865.842 719.489 866.041 720.435 866.826C721.381 867.611 721.816 868.854 721.567 870.057C721.318 871.261 720.424 872.229 719.244 872.574C717.548 873.069 715.76 872.15 715.176 870.482C714.591 868.814 715.415 866.98 717.05 866.309Z"/><path fill="#FCFDFD" d="M411.214 188.358C411.905 189.162 413.1 191.335 412.96 191.24C413.885 191.87 414.626 192.079 415.648 193.334C410.558 194.923 412.833 195.397 410.813 200.057C410.114 195.387 411.064 194.613 406.534 193.587C406.1 192.346 409.243 192.008 410.211 190.747C410.258 190.685 411.119 188.584 411.214 188.358Z"/><path fill="#FCFDFD" d="M876.646 304.829C877.177 305.936 877.718 307.038 878.269 308.135C879.607 307.992 878.936 308.044 880.282 307.98C880.217 309.067 880.144 308.968 879.604 309.921L880.431 311.975C878.274 313.837 880.033 310.673 876.971 313.909L877.234 315.328L876.757 315.308L875.811 312.862L874.278 312.186C873.605 309.112 875.738 307.883 876.646 304.829Z"/><path fill="#FCFDFD" d="M566.318 158.382C568.858 160.959 564.778 160.794 571.351 162.814L571.452 163.331C569.897 163.692 568.815 163.745 567.713 164.861C567.244 166.618 567.041 167.155 566.333 168.843C564.491 165.192 566.304 164.952 561.746 163.682L561.58 163.129C564.386 160.992 564.664 161.707 566.318 158.382Z"/><path fill="#FCFDFD" d="M554.174 840.362L554.763 840.93C555.885 844.902 555.57 844.282 559.369 845.343L559.391 845.867L559.268 845.31L558.823 846.164C557.164 846.66 557.259 846.619 555.876 847.664C555.352 849.26 555.122 849.783 554.388 851.305C552.214 844.883 551.815 848.649 549.415 845.257C554.049 844.764 553.103 844.671 554.174 840.362Z"/><path fill="#FCFDFD" d="M794.814 294.531C796.508 296.517 795.575 297.913 798.836 299.326L799.023 299.975C796.768 301.653 796.141 301.992 795.336 304.708C794.262 303.744 794.464 302.683 793.443 301.745C792.544 300.92 791.684 300.077 790.806 299.231L791.449 299.685L791.571 299.06C794.215 298.026 794.101 296.931 794.814 294.531Z"/><path fill="#FCFDFD" d="M162.311 462.844C164.009 464.537 162.945 465.418 166.652 468.38C163.759 469.284 163.486 470.556 162.843 473.259L162.695 473.907C161.453 470.26 161.299 470.609 158.313 468.278L158.279 467.561C162.095 466.648 161.443 466.573 162.311 462.844Z"/><path fill="#FCFDFD" d="M463.499 161.8C465.557 163.772 463.29 163.739 467.726 167.137C464.407 169.259 464.217 170.053 463.055 173.981C461.659 167.773 464.944 170.28 458.559 167.346C459.799 166.749 460.507 166.475 461.775 166.007C462.97 164.875 462.972 164.059 463.356 162.432L463.499 161.8Z"/><path fill="#FCFDFD" d="M328.596 178.816C329.295 182.69 329.551 182.078 333.095 183.649C330.039 185.122 329.993 185.193 328.234 188.145L327.877 188.756L327.198 188.878C327.07 187.409 327.097 187.117 326.64 185.682C325.762 185.282 324.968 184.939 324.074 184.579L324.45 183.595C327.039 181.987 327.331 181.587 328.596 178.816Z"/><path fill="#DBF5F6" d="M877.682 173.818C879.233 175.449 876.831 176.736 878.308 178.825C879.713 178.414 881.007 177.882 882.434 178.023C881.99 179.468 879.378 178.975 877.644 181.104C878.811 182.814 880.319 182.106 882.513 183.941C879.909 183.801 879.585 183.521 877.133 182.419L877.054 182.186C875.687 180.977 870.531 185.023 867.516 184.744C868.324 183.081 872.455 182.592 874.354 181.076C877.041 178.931 876.217 177.007 877.682 173.818Z"/><path fill="#FCFDFD" d="M131.706 264.373C132.636 265.611 132.724 267.388 134.583 268.454C135.179 268.796 135.025 268.906 135.158 269.777C132.928 271.867 132.597 272.355 131.569 275.234C131.323 274.581 131.234 274.443 131.179 273.929C130.701 269.44 128.6 271.306 127.654 269.218C130.751 266.773 130.283 267.773 131.706 264.373Z"/><path fill="#FCFDFD" d="M514.478 147.459C515.186 148.227 515.963 150.279 517.283 151.78L517.123 152.878C515.049 155.137 515.153 155.165 514.283 158.137C513.288 155.185 512.92 154.711 510.88 152.54L510.351 151.985C512.724 150.847 513.452 149.801 514.478 147.459Z"/><path fill="#FCFDFD" d="M883.515 420.326C884.841 424.157 883.061 423.209 886.833 427.178L887.651 426.921L887.806 427.143L887.292 427.082C884.237 430.29 884.757 431.411 883.821 435.197C883.591 433.026 882.997 430.477 882.555 428.304C881.145 428.059 879.738 427.792 878.336 427.502C879.622 426.874 880.522 426.806 881.939 426.507C883.536 425.103 882.797 423.567 883.515 420.326Z"/><path fill="#FCFDFD" d="M275.116 195.808C276.312 198.39 276.381 198.508 278.393 200.535C276.206 204.505 276.805 200.356 275.415 206.702L274.521 205.721C274.154 201.859 274.399 202.414 270.992 201.094C271.679 199.537 273.727 198.695 275.116 195.808Z"/><path fill="#FCFDFD" d="M458.508 126.03C458.774 126.295 459.477 127.644 459.709 128.059C461.179 128.809 461.533 129.074 462.833 130.008C459.516 130.916 459.213 132.498 458.756 135.525C456.351 132.121 458.265 132.92 454.112 129.977C456.402 128.982 457.279 128.156 458.508 126.03Z"/><path fill="#FCFDFD" d="M507.121 855.339C507.991 856.464 507.951 858.067 508.743 859.651C509.808 860.196 509.979 860.224 511.124 860.421L512.131 860.587L512.297 861.285C510.991 862.271 510.519 862.297 508.969 862.625C507.806 863.914 508.056 864.662 507.697 866.732L506.867 866.076C506.676 865.052 506.529 864.036 506.43 862.999C504.576 861.361 504.892 862.988 502.486 861.61C504.276 858.23 506.024 863.479 507.121 855.339Z"/><path fill="#FCFDFD" d="M825.15 586.846C826.747 588.522 825.819 589.756 829.362 592.871L828.872 592.671L828.675 593.201C826.617 594.345 826.299 595.635 825.634 597.758L825.198 597.514C824.979 596.391 824.786 595.578 824.485 594.474C823.232 593.676 822.384 593.372 821.033 592.814L821.205 592.377L823.671 591.686C825.061 589.898 824.772 589.279 825.15 586.846Z"/><path fill="#FCFDFD" d="M883.149 527.335C881.704 526.02 888.387 534.942 887.434 532.933C884.753 533.227 884.295 535.602 884.091 537.803L883.75 538.175L883.152 537.936C883.062 535.571 882.135 533.765 880.235 532.302L881.15 532.281C882.492 530.371 882.659 529.621 883.149 527.335Z"/><path fill="#FCFDFD" d="M744.329 195.405C744.65 195.749 747.289 199.908 747.311 200.528C745.522 202.321 745.147 202.754 744.524 205.213C743.656 203.18 742.333 201.102 740.29 200.096L740.75 200.168L740.254 200.425L740.164 200.185L740.405 200.303C742.444 199.462 743.541 197.354 744.329 195.405Z"/><path fill="#FCFDFD" d="M690.204 180.848C690.089 180.727 693.056 184.795 693.066 184.81C693.108 187.782 692.106 187.493 689.655 188.493L689.328 189.417L688.765 189.39L688.154 186.468C687.159 185.952 687.153 185.981 686.357 185.207L686.833 184.251C688.946 183.176 689.097 182.952 690.204 180.848Z"/><path fill="#FCFDFD" d="M704.715 143.261C705.244 145.47 705.79 146.653 708.038 147.808C709.571 148.595 705.74 149.872 705.578 150.953C705.431 151.934 705.213 152.97 705.056 153.835C704.045 153.854 704.541 153.995 703.629 153.244C703.59 151.807 703.732 151.379 702.985 150.17L701.383 149.868C702.16 147.594 703.687 146.728 704.715 143.261Z"/><path fill="#FCFDFD" d="M786.964 619.788C788.107 620.866 788.461 622.464 788.928 623.985C789.694 624.643 790.492 624.952 791.416 625.34C788.239 627.379 788.649 627.685 787.272 631.464C786.971 629.636 786.913 627.597 785.649 626.39C784.273 625.953 784.58 626.219 783.529 625.384C786.943 622.577 786.181 623.87 786.964 619.788Z"/><path fill="#FCFDFD" d="M149.906 512.214L150.672 512.919C151.369 516.092 150.99 515.613 153.735 516.608C154.242 518.032 152.318 518.049 151.193 519.352C151.186 519.36 150.2 521.681 150.117 521.877C149.259 521.234 149.246 519.584 148.963 519.331C148.486 518.903 146.871 517.482 146.3 516.978L146.729 517.084C148.792 514.27 148.408 516.349 149.906 512.214Z"/><path fill="#FCFDFD" d="M645.076 144.815C644.939 144.645 649.254 151.008 648.939 150.304C647.083 151.721 646.732 152.093 645.837 154.251L645.205 154.286C643.463 150.229 640.676 151.081 644.402 147.782C644.402 147.782 645.002 145.142 645.076 144.815Z"/><path fill="#FCFDFD" d="M304.626 781.377C305.276 783.154 306.346 785.617 308.218 786.36L308.249 785.975L308.412 786.398L307.768 786.462C306.228 788.15 305.822 788.706 304.982 790.828C303.921 789.694 303.7 788.748 302.088 787.189L301.663 786.783L301.662 785.756C303.287 784.088 303.8 783.55 304.626 781.377Z"/><path fill="#FCFDFD" d="M864.634 560.356C865.318 562.816 865.302 563.105 866.793 565.09L867.712 565.267L867.926 565.555L868.11 565.256L867.795 565.72L867.78 565.412L865.613 568.315C865.462 569.868 865.582 570.365 864.687 571.618L863.75 568.305C862.833 567.121 862.232 567.123 860.855 566.723C860.972 565.574 863.162 564.088 863.895 563.221C863.895 563.221 864.577 560.577 864.634 560.356Z"/><path fill="#FCFDFD" d="M151.185 667.355C151.877 668.048 153.796 670.712 154.823 671.839L154.743 672.738C152.865 674.287 152.536 674.793 151.435 676.966L151.152 677.237C150.606 674.012 150.967 674.482 148.35 673.192L148.524 672.212C150.387 670.343 150.695 669.952 151.185 667.355Z"/><path fill="#FCFDFD" d="M598.44 221.23C599.014 222.04 601.347 225.579 601.434 226.288C599.571 228.722 599.339 229.299 598.673 232.293C598.168 229.696 597.905 229.328 596.509 227.054L595.633 227.279L596.199 226.497L595.362 227.031C595.108 226.376 595.235 226.335 595.3 225.527L596.651 225.77C597.66 224.018 597.824 223.66 598.327 221.689L598.44 221.23Z"/><path fill="#FCFDFD" d="M126.634 426.344L127.671 428.948C128.751 429.796 129.746 430.363 130.259 431.595C127.581 433.113 127.604 433.815 126.842 436.653C126.291 434.601 125.559 432.56 123.548 431.535L123.61 431.056C124.998 429.331 125.373 428.795 126.393 426.819L126.634 426.344Z"/><path fill="#FCFDFD" d="M238.469 402.267C238.769 402.688 241.947 407.964 241.949 407.975C240.315 409.553 239.886 410.166 238.825 412.178C237.632 408.694 235.686 409.205 235.251 407.405C238.479 405.809 237.897 405.712 238.469 402.267Z"/><path fill="#FCFDFD" d="M151.316 710.46C151.892 712.632 152.402 714.322 154.592 715.252C152.753 716.487 151.948 718.564 151.257 720.566C150.094 716.441 148.053 717.157 147.369 714.904C150.74 713.804 150.266 713.721 151.316 710.46Z"/><path fill="#FCFDFD" d="M528.654 219.829C530.516 223.29 527.75 222.979 532.623 224.362C532.369 226.272 530.866 224.667 528.866 229.063L528.396 229.014C527.421 226.11 527.943 226.753 525.308 225.637L525.403 224.825C527.259 222.912 527.842 222.366 528.654 219.829Z"/><path fill="#FCFDFD" d="M716.168 783.748C717.554 782.984 719.296 783.456 720.106 784.815C720.916 786.175 720.502 787.932 719.17 788.787C718.268 789.365 717.123 789.406 716.182 788.894C715.241 788.381 714.654 787.397 714.651 786.325C714.649 785.254 715.23 784.266 716.168 783.748Z"/><path fill="#FCFDFD" d="M260.713 276.629L258.696 276.504C256.444 277.374 256.863 278.527 255.162 279.864C254.828 277.995 254.633 276.089 252.546 275.759L253.3 275.783C254.131 274.536 255.083 273.415 256.026 272.25C259.109 273.613 256.376 273.303 260.75 275.391L260.713 276.629Z"/><path fill="#DBF5F6" d="M750.681 275.155C746.745 274.732 738.06 275.051 732.98 274.726C732.116 274.108 732.62 274.303 731.316 274.48C733.33 273.87 747.686 273.265 750.582 273.117L750.681 275.155Z"/><path fill="#FCFDFD" d="M238.656 171.423C239.545 174.456 239.26 174.623 242.229 175.712C242.292 177.029 240.554 177.258 239.613 178.308C239.612 178.309 238.757 180.469 238.687 180.646L238.318 180.787C237.741 179.424 237.233 178.033 236.707 176.649L235.385 176.694L235.303 176.35L235.468 176.505L235.854 176.148L235.612 175.675L236.23 175.597C237.281 174.1 237.678 173.478 238.469 171.821L238.656 171.423Z"/><path fill="#FCFDFD" d="M186.494 490.485C187.325 492.204 187.646 492.396 189.048 493.798L189.477 494.222L189.426 495.256C187.644 496.825 187.228 497.203 186.511 499.472C186.013 498.942 185.298 496.521 184.118 495.921C183.553 495.632 183.754 495.118 183.757 494.413C185.242 492.935 185.303 492.844 186.269 490.938L186.494 490.485Z"/><path fill="#FCFDFD" d="M456.764 189.897L457.671 192.661C458.745 193.477 459.621 193.937 460.115 195.163C457.093 196.748 457.697 196.539 456.908 199.699C457.133 199.891 453.945 195.289 453.337 194.526C455.862 192.442 455.576 193.086 456.764 189.897Z"/><path fill="#FCFDFD" d="M186.904 275.197C187.577 276.374 187.553 277.591 188.681 278.7C189.268 279.278 189.652 279.943 190.022 280.676C187.862 282.498 187.5 282.903 186.544 285.562C186.139 282.155 186.508 282.448 183.632 281.061L183.7 280.258C185.861 278.373 186.224 277.989 186.904 275.197Z"/><path fill="#DBF5F6" d="M758.061 273.477C760.796 273.525 779.229 273.42 780.162 274C772.681 274.938 767.773 275.219 760.069 275.251L758.061 273.477Z"/><path fill="#DBF5F6" d="M753.856 276.791L755.358 276.893C755.581 280.49 755.25 295.08 754.421 298.069C753.739 292.34 753.95 282.897 753.856 276.791Z"/><path fill="#FCFDFD" d="M146.462 358.247C147.822 362.151 147.426 361.596 151.267 362.437L151.07 363.052C148.804 364.034 147.99 364.083 146.818 366.251L146.647 366.692C145.637 364.306 145.603 364.408 143.293 363.573C143.235 362.037 144.694 361.991 145.808 360.683C145.808 360.683 146.408 358.448 146.462 358.247Z"/><path fill="#FCFDFD" d="M540.443 132.249C541.127 134.698 541.503 135.22 543.173 137.14C542.959 138.144 541.376 139.172 540.711 142.378C539.786 139.948 538.9 139.171 537.222 137.212C539.067 135.913 539.788 134.325 540.443 132.249Z"/><path fill="#DBF5F6" d="M753.557 270.729C754.131 266.962 753.697 251.114 754.645 249.597C755.562 256.3 754.864 264.091 755.451 270.297L753.557 270.729Z"/><path fill="#FCFDFD" d="M456.398 842.432L456.715 842.759C457.196 845.289 457.391 845.197 459.562 846.681L460.063 846.554C458.136 846.945 457.5 848.397 456.617 849.989L456.372 850.439C455.84 850.347 456.229 850.443 455.343 849.813C454.686 847.089 455.196 847.48 452.589 846.707L452.835 846.112L452.792 846.756L453.117 845.839C454.744 844.677 454.828 844.508 456.073 842.867L456.398 842.432Z"/><path fill="#FCFDFD" d="M144.626 597.876C145.203 598.581 145.717 600.312 146.325 601.517C147.622 602.258 147.496 602.1 148.579 603.074C145.655 605.163 146.448 604.081 145.165 607.079C143.311 605.053 145.145 605.582 141.389 603.322C144.163 601.338 143.908 600.798 144.626 597.876Z"/><path fill="#FCFDFD" d="M236.609 247.433C237.304 248.927 238.172 249.741 239.26 250.968L240.016 250.92L240.289 251.592L239.885 251.511L240.346 251.097L240.367 251.696L239.477 251.34C237.882 253.024 237.534 253.502 236.798 255.701C236.905 255.799 233.394 251.218 233.421 251.288C235.316 249.843 235.762 249.648 236.609 247.433Z"/><path fill="#FCFDFD" d="M584.277 132.411C585.323 134.525 586.69 134.762 587.047 136.46C585.674 138.126 585.39 138.539 584.44 140.492L584.218 140.955C583.273 138.199 583.339 138.169 580.966 136.574C582.445 134.971 583.046 134.212 584.277 132.411Z"/><path fill="#FCFDFD" d="M381.086 864.731C382.715 866.009 382.416 866.636 383.113 868.981C384.21 869.334 385.3 869.708 386.382 870.104C386.219 871.405 384.715 870.695 383.333 871.249C383.333 871.249 381.984 872.833 381.874 872.963L381.808 873.543L381.354 873.882L380.649 871.307L378.101 870.323L378.191 869.708L380.201 869.385C381.248 868.387 380.976 866.558 381.086 864.731Z"/><path fill="#FCFDFD" d="M897.121 603.344C898.753 605.049 897.179 605.695 900.735 608.202L900.165 608.184L900.047 609.057C898.988 609.963 898.511 610.566 897.592 611.597L897.204 611.828C896.543 610.47 895.574 609.465 894.6 608.302L895.104 607.762C896.803 605.882 896.511 605.919 897.121 603.344Z"/><path fill="#FCFDFD" d="M204.191 527.854C205.216 529.701 206.984 530.608 207.211 531.961C205.826 533.2 205.681 533.347 204.621 534.903L204.375 535.271C204.192 535.133 201.337 531.91 200.977 531.508C202.846 530.09 202.901 529.883 204.191 527.854Z"/><path fill="#FCFDFD" d="M264.289 856.686C265.3 859.181 265.566 859.522 267.752 860.724L267.587 860.192L267.86 860.884L266.844 860.718C265.473 862.245 265.252 862.579 264.447 864.464C264.053 864.118 261.579 860.877 261.473 860.136C262.422 858.994 263.36 857.844 264.289 856.686Z"/><path fill="#FCFDFD" d="M323.122 274.307C324.13 276.725 325.12 276.865 325.932 278.672C324.987 280.136 324.019 281.121 323.154 282.65C321.417 278.648 322.75 281.236 319.378 278.474C322.397 276.81 321.883 277.088 323.122 274.307Z"/><path fill="#A6E1EB" d="M830.369 410.292C824.516 409.53 817.866 410.337 811.522 409.514L812.404 409.572C813.917 408.614 828.593 408.765 831.295 408.763L830.369 410.292Z"/><path fill="#FCFDFD" d="M145.946 495.869C147.145 496.955 147.441 497.205 148.485 498.511C148.195 500.465 147.499 500.576 145.852 502.374L145.459 502.354C143.758 501.27 144.367 501.974 143.502 500.221C143.768 498.107 144.503 497.595 145.946 495.869Z"/><path fill="#1393B8" d="M874.508 634.169L875.09 634.96C874.28 637.357 867.401 642.377 865.09 644.184L864.319 644.202C866.249 640.437 873.261 638.576 871.419 635.371C873.036 634.195 872.938 634.911 874.508 634.169Z"/><path fill="#FCFDFD" d="M826.655 280.341C827.133 280.88 829.192 283.958 829.284 284.7C827.541 285.937 827.407 286.163 826.644 288.166C825.947 286.748 825.337 286.253 824.258 285.131L823.465 284.96L823.117 284.396L823.451 284.429L823.105 284.753L823.073 284.346L823.252 284.696L823.604 284.3L824.412 284.284C825.741 282.843 825.747 282.716 826.474 280.825L826.655 280.341Z"/><path fill="#A3EEF3" d="M275.453 276.101C282.217 275.981 288.517 275.903 295.3 276.361C291.655 277.113 283.396 277.94 279.758 277.42L279.965 276.758C278.361 276.572 277.043 276.38 275.453 276.101Z"/><path fill="#FCFDFD" d="M754.663 372.724C755.413 372.858 756.397 374.189 756.832 374.774C756.665 376.477 755.125 377.378 754.739 380.369C753.87 377.607 752.282 376.981 751.909 375.277C753.097 374.324 753.609 373.793 754.663 372.724Z"/><path fill="#FCFDFD" d="M795.211 424.103C796.044 425.318 797.151 426.19 798.144 427.309C796.4 428.611 796.201 428.86 795.382 430.872C793.97 429.277 793.155 428.893 792.838 427.087L795.211 424.103Z"/><path fill="#57BED8" d="M234.457 748.325C240.32 747.659 246.457 746.746 252.28 747.856C251.094 747.888 246.588 747.813 245.948 748.278L248.534 749.025C244.613 749.118 238.143 749.3 234.457 748.325Z"/><path fill="#FCFDFD" d="M808.967 723.856C812.753 723.943 817.687 723.911 821.343 724.449C818.72 725.439 811.132 725.457 808.206 725.496L808.967 723.856Z"/><path fill="#57BED8" d="M831.977 646.519C830.532 645.287 826.536 642.043 824.635 641.979C824.433 642.728 824.4 643.235 824.365 644L823.494 643.4C822.876 641.975 823.078 641.904 823.412 640.322L824.312 640.06C826.824 640.898 830.477 643.959 832.488 645.766L831.977 646.519Z"/><path fill="#A3EEF3" d="M659.506 180.448C659.419 177.541 659.041 171.787 660.203 169.28L660.698 170.118L659.823 170.167L659.776 170.381L660.809 170.721C661.108 173.089 660.962 177.544 660.945 180.072L659.506 180.448Z"/><path fill="#FCFDFD" d="M199.526 737.225C200.26 737.842 200.893 738.553 201.56 739.248C201.481 741.19 200.968 741.144 199.469 743.067C198.556 741.776 197.643 741.38 197.029 739.699C197.899 738.568 198.467 738.14 199.526 737.225Z"/><path fill="#A3EEF3" d="M146.247 380.581C151.559 380.085 156.895 379.904 162.227 380.039L159.438 380.769L162.532 381.472C158.192 381.769 150.695 381.017 146.247 380.581Z"/><path fill="#A3EEF3" d="M178.989 362.397C179.051 358.953 179.702 355.91 180.307 352.526L180.561 352.291C180.871 356.91 180.438 359.908 180.502 364.201L178.989 362.397Z"/><path fill="#FCFDFD" d="M330.356 836.283C330.989 835.818 331.827 835.739 332.536 836.077C333.244 836.416 333.71 837.117 333.746 837.902C333.782 838.686 333.384 839.427 332.709 839.83C331.733 840.413 330.47 840.126 329.842 839.178C329.213 838.231 329.439 836.956 330.356 836.283Z"/><path fill="#FCFDFD" d="M500.268 824.258C500.997 823.921 501.854 824.031 502.475 824.54C503.096 825.049 503.371 825.869 503.182 826.649C502.994 827.43 502.376 828.034 501.592 828.204C500.548 828.431 499.502 827.836 499.162 826.824C498.823 825.812 499.299 824.707 500.268 824.258Z"/><path fill="#FCFDFD" d="M134.092 466.184C134.709 465.722 135.531 465.642 136.225 465.977C136.918 466.312 137.367 467.006 137.388 467.776C137.409 468.546 136.998 469.263 136.324 469.635C135.377 470.158 134.187 469.859 133.599 468.95C133.012 468.042 133.227 466.834 134.092 466.184Z"/><path fill="#FCFDFD" d="M485.874 780.835C486.616 780.749 487.346 781.072 487.781 781.68C488.216 782.287 488.287 783.083 487.967 783.757C487.647 784.432 486.986 784.88 486.24 784.928C485.128 784.998 484.162 784.169 484.063 783.059C483.964 781.95 484.767 780.963 485.874 780.835Z"/><path fill="#A6E1EB" d="M168.642 613.957C164.927 614.175 158.6 614.094 155.01 613.399C158.043 612.932 160.534 612.831 163.593 612.677C165.472 613.696 166.469 613.664 168.642 613.957Z"/><path fill="#FCFDFD" d="M165.898 310.262C166.51 309.827 167.314 309.771 167.981 310.115C168.648 310.46 169.067 311.148 169.067 311.899C169.067 312.65 168.647 313.338 167.98 313.683C167.044 314.166 165.893 313.843 165.345 312.943C164.797 312.042 165.038 310.872 165.898 310.262Z"/><path fill="#FCFDFD" d="M806.538 727.002L808.206 725.496C810.35 728.876 812.665 730.886 814.506 733.763C811.147 731.375 809.551 729.875 806.538 727.002Z"/><path fill="#57BED8" d="M187.895 618.517L188.961 618.38C189.3 621.451 189.721 624.162 188.94 627.149L189.004 626.192L188.412 625.909C187.827 623.382 187.929 621.112 187.895 618.517Z"/><path fill="#DBF5F6" d="M419.693 166.908C424.714 166.595 427.323 166.797 432.349 167.405C428.148 167.691 424.168 167.981 419.984 168.44L419.693 166.908Z"/><path fill="#FCFDFD" d="M756.912 276.305C757.626 275.921 757.265 276.223 757.758 275.176L758.066 275.626C759.781 278.085 762.12 279.942 763.104 281.937C761.059 280.78 758.064 278.314 756.912 276.305Z"/><path fill="#DBF5F6" d="M758.844 268.196C761.551 265.57 763.536 263.922 766.502 261.566C763.706 265.248 760.561 268.281 757.159 271.4C758.053 269.998 758.204 269.659 758.844 268.196Z"/><path fill="#FCFDFD" d="M867.662 497.894C866.512 496.756 863.837 494.422 863.913 492.784C865.809 493.607 866.978 495.255 868.402 496.837L867.662 497.894Z"/><path fill="#DBF5F6" d="M861.663 508.005C863.548 504.764 864.395 503.907 866.939 501.346L869.061 501.614C867.39 502.804 863.387 506.501 861.663 508.005Z"/><path fill="#A6E1EB" d="M268.107 744.564C270.157 742.757 272.385 740.514 274.794 739.378C274.289 739.698 273.784 740.018 273.278 740.339L274.253 740.318C272.665 741.847 271.035 743.33 269.363 744.766L268.107 744.564Z"/><path fill="#A3EEF3" d="M276.125 278.099C277.465 279.257 280.221 281.214 280.532 282.785C278.801 282.507 276.748 280.352 275.467 279.077L276.125 278.099Z"/><path fill="#FCFDFD" d="M567.767 205.81L569.89 205.703C569.622 207.507 569.591 209.655 568.629 210.959C567.815 209.491 567.878 207.546 567.767 205.81Z"/><path fill="#A3EEF3" d="M676.556 194.178C677.984 192.792 679.516 190.985 681.331 190.364C680.871 192.005 678.933 193.465 677.571 194.651L676.556 194.178Z"/><path fill="#DBF5F6" d="M749.35 277.933L751.895 276.734C749.185 279.479 747.109 281.534 744.176 284.016C745.241 282.563 747.911 278.659 749.35 277.933Z"/><path fill="#57BED8" d="M286.831 747.908C289.368 747.29 291.591 747.476 294.207 747.51C290.851 748.413 289.597 748.581 286.14 748.928L286.831 747.908Z"/><path fill="#57BED8" d="M694.509 806.975C696.142 806.972 699.015 806.766 700.386 807.394C698.124 808.152 695.553 808.06 693.15 808.019L694.509 806.975Z"/><path fill="#57BED8" d="M737.686 745.972C734.718 746.161 731.99 746.183 729.122 745.398C730.997 744.911 731.583 745.004 733.477 745.045L737.686 745.972Z"/><path fill="#A3EEF3" d="M815.767 381.08C818.611 383.144 819.576 384.231 821.987 386.77L820.946 387.22C819.509 385.841 817.113 382.728 815.767 381.08Z"/><path fill="#A6E1EB" d="M182.57 574.213C182.987 576.717 183.083 577.409 182.97 579.931L182.007 584.03C181.758 580.411 182.16 577.808 182.57 574.213Z"/><path fill="#A3EEF3" d="M378.04 223.816C379.213 224.794 381.062 227.606 382.034 228.968C379.491 226.975 378.651 226.171 376.441 223.862L378.04 223.816Z"/><path fill="#A6E1EB" d="M156.799 589.313C159.575 591.164 160.585 591.753 162.895 594.184L162.003 594.863C159.927 593.119 158.551 591.365 156.799 589.313Z"/><path fill="#A3EEF3" d="M641.018 191.167C639.568 189.748 638.27 188.687 637.88 186.875C639.264 187.326 639.933 188.468 640.898 189.64L641.018 191.167Z"/><path fill="#57BED8" d="M844.001 377.739C843.911 375.063 843.963 373.159 844.555 370.547C845.083 371.978 844.964 373.478 844.987 375.03L844.001 377.739Z"/><path fill="#A6E1EB" d="M679.241 227.429C680.635 228.673 681.328 228.816 681.635 230.272C680.1 230.003 678.926 228.747 677.914 227.491L679.241 227.429Z"/><path fill="#A3EEF3" d="M411.978 153.518C412.015 151.416 411.858 149.656 412.626 147.727C413.305 149.073 413.066 150.763 413.036 152.344L411.978 153.518Z"/><path fill="#57BED8" d="M265.997 728.124C265.904 725.199 265.823 723.774 266.635 720.911C267.116 722.105 267.003 723.115 267.008 724.41L265.997 728.124Z"/><path fill="#A6E1EB" d="M392.172 810.477C394.418 810.534 395.868 810.428 398.025 811.152C396.807 811.724 394.472 811.568 393.003 811.576L392.172 810.477Z"/><path fill="#A6E1EB" d="M870.012 657.03L872.822 657.125C871.697 658.116 867.297 658.032 865.696 657.934C867.174 657.495 868.499 657.306 870.012 657.03Z"/><path fill="#57BED8" d="M167.706 805.135C168.703 806.237 169.547 806.853 169.638 808.281C168.183 807.755 167.945 806.945 166.791 805.52L167.706 805.135Z"/><path fill="#A6E1EB" d="M587.412 856.007C585.719 856.018 585.619 856.071 583.911 855.635C584.703 854.772 585.902 854.848 587.358 854.57L587.079 855.468L587.412 856.007Z"/></svg>